<?xml version="1.0" standalone="no"?>
<!DOCTYPE svg PUBLIC "-//W3C//DTD SVG 20010904//EN"
 "http://www.w3.org/TR/2001/REC-SVG-20010904/DTD/svg10.dtd">
<svg version="1.0" xmlns="http://www.w3.org/2000/svg"
 width="2871.000000pt" height="1185.000000pt" viewBox="0 0 2871.000000 1185.000000"
 preserveAspectRatio="xMidYMid meet">

<g transform="translate(0.000000,1185.000000) scale(0.100000,-0.100000)"
fill="#000000" stroke="none">
<path d="M14997 11684 c-3 -4 -30 -6 -59 -5 -47 1 -108 -10 -148 -26 -31 -12
-46 -13 -86 -2 -30 8 -57 8 -95 0 -91 -18 -297 -11 -325 11 -7 5 -25 8 -40 8
-16 0 -62 0 -102 0 -78 -1 -119 -11 -137 -36 -15 -21 -154 -23 -207 -4 -31 11
-43 11 -77 0 -23 -7 -56 -13 -74 -12 -152 4 -267 11 -275 16 -6 4 -39 2 -74
-5 -35 -6 -73 -12 -85 -12 -12 -1 -25 -5 -29 -9 -4 -5 -18 -8 -31 -8 -13 0
-31 -4 -41 -9 -21 -11 -62 -27 -85 -35 -16 -5 -16 -7 0 -25 9 -11 20 -18 25
-15 4 3 8 1 8 -5 0 -12 -19 -24 -40 -28 -19 -2 -44 16 -53 39 -8 22 -47 12
-47 -12 0 -22 -18 -30 -45 -19 -34 13 -52 10 -58 -11 -6 -24 -27 -27 -27 -4 0
8 -5 12 -10 9 -8 -5 -8 -11 0 -20 7 -9 6 -16 -5 -25 -12 -10 -15 -10 -15 1 0
8 -9 20 -19 26 -16 10 -18 9 -14 -8 4 -13 0 -19 -11 -19 -9 0 -16 -8 -16 -20
0 -22 -35 -46 -45 -30 -3 5 -3 15 0 20 10 17 -18 71 -34 65 -7 -3 -30 9 -50
27 -32 29 -36 30 -39 12 -6 -38 -25 -74 -38 -74 -10 0 -14 -12 -14 -38 0 -39
-16 -62 -52 -75 -10 -4 -18 -15 -18 -26 0 -11 -7 -26 -15 -35 -8 -8 -15 -19
-15 -23 0 -5 -17 -24 -37 -42 -31 -27 -41 -31 -55 -22 -29 18 -64 13 -80 -11
-14 -22 -16 -22 -41 -5 -29 19 -63 22 -72 7 -10 -17 -51 -11 -79 11 -18 15
-32 18 -48 13 -13 -5 -26 -7 -30 -6 -5 1 -8 -4 -8 -12 0 -16 -80 -33 -99 -22
-6 4 -28 -5 -48 -19 -38 -25 -86 -32 -112 -16 -7 5 -25 4 -41 -2 -22 -8 -35
-7 -64 7 -21 10 -40 24 -43 32 -3 8 -16 14 -29 14 -13 0 -24 4 -24 8 0 5 -11
15 -25 22 -14 7 -25 19 -25 27 0 7 -7 13 -15 13 -21 0 -117 50 -130 67 -6 8
-31 17 -55 20 -25 4 -60 15 -79 25 l-34 19 -25 -26 c-13 -14 -30 -24 -38 -21
-7 3 -22 -6 -33 -20 -14 -18 -28 -24 -46 -22 -14 2 -26 8 -26 13 0 14 -36 26
-55 18 -9 -3 -35 3 -58 14 -140 69 -183 81 -318 87 -83 4 -108 2 -118 -8 -16
-20 -84 -30 -109 -16 -16 8 -27 8 -43 -1 -31 -17 -76 -12 -106 11 -26 21 -77
27 -87 10 -7 -11 -39 3 -63 26 -10 10 -17 11 -31 2 -13 -8 -30 -7 -67 5 -64
20 -218 18 -254 -5 -28 -17 -72 -30 -110 -32 -16 -1 -26 -8 -30 -22 -3 -12
-27 -44 -54 -71 -48 -49 -50 -49 -68 -31 -22 22 -61 19 -100 -6 -18 -12 -32
-14 -57 -6 -22 6 -40 5 -58 -3 -21 -9 -32 -7 -66 11 -45 23 -94 23 -108 1 -5
-8 -29 -14 -64 -14 -45 -1 -59 -6 -71 -24 -9 -12 -21 -20 -27 -18 -7 2 -23 -4
-36 -14 -13 -11 -32 -19 -42 -19 -10 0 -21 -4 -24 -10 -3 -5 -24 -10 -46 -10
-22 0 -53 -6 -68 -14 -23 -12 -34 -13 -64 -2 -20 7 -40 15 -43 19 -11 10 -54
8 -54 -2 0 -6 -10 -7 -22 -5 -13 3 -29 6 -35 6 -7 1 -13 7 -13 14 0 8 -12 10
-40 7 -27 -4 -40 -2 -40 6 0 7 -9 9 -25 5 -17 -4 -33 1 -51 15 -17 13 -31 18
-38 12 -6 -5 -51 -11 -101 -14 -78 -5 -114 -9 -135 -17 -3 -1 -12 -2 -22 -1
-9 1 -34 -5 -55 -15 -44 -19 -140 -28 -148 -13 -4 5 -21 9 -38 9 -47 0 -77 10
-77 26 0 25 -19 30 -177 53 -35 5 -59 14 -71 29 -11 12 -24 22 -31 22 -6 0
-11 4 -11 9 0 12 -101 -15 -159 -42 -24 -11 -60 -21 -80 -20 -19 0 -49 -6 -66
-13 -29 -12 -37 -11 -71 6 -21 11 -47 20 -59 20 -11 0 -41 7 -67 15 -56 17
-305 14 -359 -4 -19 -6 -45 -25 -59 -42 -50 -64 -58 -69 -104 -69 -25 0 -51 6
-59 14 -9 10 -31 14 -62 12 -26 -2 -61 2 -77 8 -23 8 -35 7 -62 -8 -31 -16
-36 -17 -64 -2 -47 24 -69 20 -110 -22 -31 -33 -122 -82 -122 -67 0 3 -23 -4
-50 -15 -28 -11 -88 -22 -138 -26 -48 -3 -89 -6 -92 -6 -25 -3 -90 17 -94 29
-5 12 -17 13 -55 8 -36 -5 -55 -3 -73 8 -26 17 -165 26 -187 13 -7 -5 -37 -10
-66 -12 -29 -1 -78 -10 -109 -19 -54 -16 -57 -16 -82 4 -14 11 -46 23 -72 26
-26 4 -78 23 -116 42 -59 30 -79 35 -146 36 -58 2 -83 -2 -96 -14 -11 -8 -35
-16 -54 -18 -19 -1 -53 -8 -75 -15 -66 -21 -190 -24 -405 -8 -111 8 -140 7
-162 -4 -15 -8 -36 -14 -48 -14 -11 0 -30 -9 -42 -20 -17 -15 -30 -18 -60 -13
-31 4 -49 0 -91 -22 -65 -35 -62 -32 -48 -49 7 -8 10 -24 7 -34 -6 -17 -15
-19 -86 -17 -73 2 -96 -4 -70 -20 15 -9 12 -25 -3 -19 -9 3 -13 -4 -12 -22 0
-20 -8 -32 -30 -44 -16 -10 -33 -16 -37 -13 -11 6 -77 -40 -83 -59 -3 -9 -12
-19 -20 -22 -28 -10 -16 -41 25 -60 22 -10 47 -27 56 -38 10 -10 23 -18 31
-18 7 0 13 -7 13 -16 0 -10 -6 -14 -14 -11 -8 3 -22 -3 -31 -13 -13 -15 -22
-17 -36 -9 -14 7 -21 5 -31 -11 -7 -11 -19 -20 -27 -20 -9 0 -12 -8 -9 -25 5
-21 2 -25 -20 -25 -14 0 -41 -6 -60 -12 -37 -14 -42 -10 -97 64 -16 23 -34 30
-95 42 -41 8 -94 24 -117 36 -27 12 -52 18 -67 14 -16 -4 -27 -1 -33 10 -8 14
-12 14 -46 -3 -20 -10 -34 -21 -31 -24 3 -3 -4 -10 -15 -17 -31 -16 -26 -47
14 -87 31 -31 38 -34 74 -28 33 5 42 2 51 -15 6 -11 17 -20 24 -20 7 0 32 -21
55 -46 35 -37 40 -48 31 -60 -18 -20 7 -47 37 -41 15 3 23 -1 23 -10 0 -8 11
-29 25 -47 14 -18 25 -36 25 -41 0 -4 8 -13 17 -20 14 -10 15 -17 6 -37 -13
-29 4 -58 33 -58 22 0 64 -27 64 -41 0 -5 -13 -17 -30 -27 -16 -10 -43 -38
-59 -63 -26 -38 -28 -46 -15 -60 23 -25 17 -31 -26 -24 -38 6 -89 -13 -74 -28
10 -10 -34 -23 -100 -31 -46 -5 -74 -2 -127 15 -57 18 -71 20 -85 9 -22 -19
-117 -34 -203 -32 -53 2 -79 -2 -90 -12 -21 -19 -70 -14 -86 8 -7 9 -19 16
-26 16 -17 0 -139 118 -139 135 0 3 7 5 15 5 13 0 13 3 3 20 -12 19 -13 19
-25 -3 -10 -18 -12 -19 -13 -4 0 36 -66 83 -100 72 -13 -4 -22 0 -29 14 -23
42 -42 53 -83 46 -22 -4 -56 -17 -74 -30 -25 -17 -44 -22 -71 -19 -193 22
-184 22 -200 -3 -13 -19 -14 -31 -6 -58 6 -18 9 -48 7 -65 -2 -17 1 -41 7 -52
8 -15 8 -22 -1 -28 -9 -6 -9 -13 -1 -28 10 -18 8 -24 -13 -38 -14 -8 -29 -13
-34 -10 -6 3 -12 -2 -14 -12 -3 -11 -16 -18 -33 -20 -43 -3 -112 -84 -88 -101
12 -9 52 -68 63 -93 6 -13 15 -31 22 -40 9 -13 9 -22 0 -40 -15 -29 -12 -108
4 -108 7 0 15 -18 19 -40 4 -22 11 -42 16 -46 19 -12 7 -34 -26 -48 -36 -15
-47 -36 -20 -36 23 0 18 -18 -10 -36 -14 -9 -25 -26 -25 -38 0 -12 -5 -27 -12
-34 -9 -9 -7 -16 8 -29 24 -22 20 -59 -7 -66 -11 -3 -19 -14 -19 -25 0 -38
-39 -33 -87 11 -16 14 -26 17 -35 10 -15 -12 -57 -23 -113 -29 -45 -6 -52 -11
-56 -39 -3 -22 18 -94 32 -109 5 -6 9 -15 9 -22 0 -19 -47 -63 -74 -70 -31 -7
-51 -41 -61 -102 -4 -24 -12 -41 -18 -40 -7 1 -23 -4 -37 -12 -14 -7 -38 -16
-55 -20 -22 -4 -30 -12 -30 -27 -1 -24 -23 -55 -35 -48 -13 8 -30 -20 -20 -35
7 -11 14 -12 33 -3 37 17 80 -10 151 -95 44 -54 56 -76 47 -81 -19 -12 -97 -7
-115 8 -13 11 -17 9 -27 -13 -8 -16 -20 -26 -34 -26 -31 0 -59 -24 -52 -44 10
-24 -3 -46 -27 -46 -35 -1 -71 -88 -69 -169 4 -147 8 -171 34 -189 67 -46 96
-105 64 -128 -24 -17 -16 -24 28 -27 49 -3 76 -30 71 -70 -7 -49 -6 -60 1 -82
3 -11 0 -28 -7 -38 -12 -16 -17 -17 -41 -6 -30 13 -35 26 -13 31 11 2 8 10
-11 32 -18 22 -27 26 -33 16 -4 -7 -13 -10 -18 -6 -36 22 -28 -90 10 -144 10
-13 18 -37 18 -53 0 -15 9 -47 20 -69 25 -52 25 -58 0 -58 -11 0 -20 -4 -20
-10 0 -5 -7 -10 -15 -10 -19 0 -19 -18 0 -62 9 -24 11 -38 4 -45 -16 -16 16
-83 38 -83 25 0 43 -19 43 -47 0 -26 20 -73 31 -73 4 0 15 -20 25 -45 17 -45
17 -47 -3 -73 -11 -15 -20 -40 -20 -55 0 -16 -9 -38 -20 -50 -41 -47 -50 -70
-41 -106 5 -19 7 -46 5 -60 -3 -14 -1 -34 4 -44 6 -9 7 -33 3 -52 -5 -27 -11
-34 -33 -37 -18 -2 -25 -8 -23 -20 1 -9 -9 -28 -22 -41 -34 -34 -41 -69 -22
-104 38 -69 49 -102 52 -158 4 -64 -10 -115 -32 -115 -22 0 -35 -36 -37 -109
-2 -62 0 -71 23 -89 16 -13 25 -31 27 -53 1 -19 4 -47 6 -62 3 -18 -1 -31 -9
-34 -24 -9 1 -253 26 -253 21 0 48 -119 30 -130 -9 -6 -6 -14 9 -29 26 -26 27
-51 4 -51 -41 0 -66 -24 -68 -65 -1 -21 -7 -41 -14 -43 -27 -9 -8 -38 22 -33
8 1 11 -29 9 -110 -1 -39 3 -61 13 -69 8 -6 17 -32 21 -56 3 -24 10 -47 15
-50 5 -3 9 -15 9 -28 0 -13 19 -43 45 -70 25 -27 45 -56 45 -67 0 -10 7 -34
16 -53 16 -33 16 -36 -4 -69 -14 -25 -17 -38 -9 -46 7 -7 6 -16 -7 -30 -47
-52 -22 -127 39 -115 36 7 58 -12 58 -51 0 -14 4 -28 9 -31 5 -3 4 -11 -2 -19
-7 -8 -9 -23 -5 -35 5 -16 15 -20 46 -20 21 0 39 -4 39 -8 0 -8 -80 -52 -95
-52 -4 0 -5 7 -2 14 4 9 1 13 -6 10 -7 -2 -12 -23 -11 -51 0 -33 -5 -51 -17
-62 -15 -12 -17 -24 -12 -56 3 -22 12 -47 19 -56 8 -9 16 -38 18 -65 2 -27 10
-64 16 -82 10 -28 10 -36 -4 -51 -15 -17 -14 -19 9 -29 21 -10 24 -17 19 -37
-4 -15 -2 -25 4 -25 6 0 0 -12 -13 -26 -29 -31 -31 -42 -10 -50 17 -7 21 -34
5 -34 -5 0 -10 -7 -10 -15 0 -9 -7 -18 -16 -22 -12 -4 -14 -14 -9 -43 11 -66
13 -155 3 -167 -6 -7 -5 -19 2 -33 12 -22 5 -60 -13 -71 -5 -4 -7 -15 -2 -25
4 -11 8 -32 10 -49 2 -16 6 -49 10 -73 7 -37 5 -46 -15 -67 -12 -13 -44 -29
-70 -35 -56 -13 -77 -33 -82 -75 -3 -31 -34 -53 -81 -59 -36 -5 -81 -26 -95
-44 -7 -10 -27 -17 -50 -17 -122 -3 -121 -3 -128 -32 -4 -16 -13 -34 -22 -40
-14 -11 -12 -15 12 -35 29 -24 62 -57 97 -97 23 -26 24 -21 -24 -131 -14 -33
-14 -38 14 -95 25 -53 35 -64 76 -83 27 -11 55 -25 63 -30 8 -6 28 -14 45 -19
37 -10 58 -52 60 -112 0 -25 6 -46 13 -49 7 -2 12 -12 12 -22 0 -9 7 -23 15
-30 8 -7 15 -19 15 -26 0 -8 9 -14 19 -14 11 0 27 -7 35 -16 14 -13 21 -13 51
-3 33 12 62 5 38 -9 -6 -4 -9 -19 -6 -35 4 -21 11 -27 31 -27 l26 0 -26 -27
c-23 -26 -24 -31 -14 -72 7 -25 18 -46 26 -48 44 -12 90 -38 90 -51 0 -12 10
-14 54 -8 49 5 54 4 49 -13 -6 -24 24 -36 43 -16 9 8 22 15 29 15 8 0 18 7 23
16 10 18 47 15 47 -3 0 -13 27 -48 41 -54 5 -2 22 -19 38 -37 22 -24 27 -35
19 -43 -15 -15 -6 -38 23 -67 13 -13 24 -31 24 -41 0 -13 10 -21 33 -25 22 -5
28 -9 19 -15 -10 -6 -8 -10 9 -14 23 -6 23 -7 -11 -37 -19 -18 -34 -38 -32
-46 2 -8 -1 -14 -6 -14 -4 0 -9 -18 -10 -40 -2 -26 1 -40 9 -40 7 0 20 -7 30
-16 25 -22 76 -9 111 28 21 22 39 30 75 34 26 3 50 10 54 16 5 8 13 6 25 -7
12 -11 19 -14 22 -6 4 13 48 15 56 2 3 -5 -4 -20 -15 -35 -11 -14 -18 -27 -15
-27 3 -1 12 -2 19 -3 6 0 12 -8 12 -16 0 -8 -6 -14 -13 -12 -8 1 -11 -2 -7 -8
3 -6 11 -8 16 -5 5 4 9 1 9 -4 0 -6 10 -11 23 -11 12 0 37 -9 55 -20 18 -11
38 -18 43 -14 5 3 15 1 22 -4 7 -6 50 -9 97 -7 110 4 156 -8 174 -44 21 -40
42 -56 53 -38 15 26 96 55 138 51 22 -3 53 -6 68 -8 15 -1 33 -8 39 -14 15
-15 58 -16 58 -1 0 7 10 9 24 5 17 -4 29 -1 38 11 22 30 63 28 114 -7 31 -21
58 -31 83 -30 50 0 110 -10 117 -21 3 -5 14 -9 25 -9 11 0 32 -11 47 -25 41
-38 62 -41 83 -14 15 20 27 24 76 24 32 0 65 4 73 10 8 5 22 10 30 12 16 2 74
-47 100 -85 8 -12 20 -22 28 -22 7 0 15 -6 18 -14 8 -22 54 -30 68 -12 17 24
37 4 43 -44 5 -35 11 -44 34 -52 16 -5 29 -16 29 -23 0 -30 65 -51 98 -31 15
9 54 -2 47 -14 -10 -16 19 -24 106 -26 97 -2 129 -9 129 -29 0 -7 11 -20 25
-29 14 -9 25 -23 25 -31 0 -7 12 -23 27 -35 24 -19 29 -20 39 -6 6 9 19 16 28
16 9 0 16 5 16 10 0 6 7 10 15 10 9 0 26 11 39 25 24 26 63 29 91 5 8 -7 34
-14 56 -16 23 -3 54 -12 69 -21 28 -16 30 -16 69 10 22 15 46 27 52 27 7 0 36
22 65 50 53 51 63 55 99 41 15 -6 31 4 77 52 32 33 58 63 58 67 0 4 8 10 18
13 9 2 25 8 34 12 13 5 18 2 18 -9 0 -9 8 -16 19 -16 10 0 21 -7 25 -15 3 -8
13 -15 22 -15 9 0 23 -8 30 -17 12 -17 14 -17 34 5 26 27 35 27 67 2 23 -18
28 -19 43 -5 29 26 57 19 62 -15 3 -17 1 -30 -4 -30 -15 0 -8 -18 9 -24 10 -4
20 -1 24 6 8 15 47 17 67 4 7 -4 27 -2 46 4 26 8 39 7 61 -4 28 -15 56 -9 70
14 12 20 25 9 46 -39 11 -27 27 -52 35 -55 8 -3 19 -17 24 -31 12 -32 27 -32
42 0 8 19 22 27 50 31 21 4 40 10 43 13 7 12 7 125 -1 149 -5 16 -2 22 10 22
9 0 19 -7 22 -15 7 -17 44 -21 44 -5 0 6 -4 10 -10 10 -5 0 -10 18 -10 40 0
27 -5 42 -17 49 -10 5 -15 12 -11 16 3 4 15 2 24 -3 14 -8 21 -6 31 6 11 16
12 16 13 0 0 -9 -4 -20 -10 -23 -13 -8 -13 -18 3 -39 12 -17 16 -17 50 -2 l38
15 54 -49 c31 -28 59 -50 64 -50 5 0 19 -16 31 -36 22 -34 22 -37 6 -73 -16
-35 -16 -39 3 -84 16 -37 25 -47 44 -47 13 0 27 3 31 7 3 4 22 12 41 19 28 9
37 9 46 -2 16 -20 99 -19 99 1 0 8 11 22 25 31 14 9 25 20 25 24 0 4 15 23 34
43 25 27 32 42 29 61 -5 23 -2 26 36 32 26 4 46 14 52 25 5 11 16 19 24 19 10
0 15 10 15 27 0 26 0 26 21 7 16 -14 23 -15 26 -6 5 13 33 17 33 4 0 -5 12
-14 26 -21 22 -10 24 -14 14 -26 -18 -21 -3 -32 21 -17 23 15 39 8 39 -17 0
-25 20 -41 53 -41 22 0 28 -4 25 -17 -6 -28 53 -63 104 -62 24 0 52 4 63 8 11
5 31 4 44 -1 16 -6 33 -4 54 7 16 8 36 15 43 15 7 0 17 7 21 15 12 21 37 1 39
-32 1 -25 19 -38 19 -13 0 5 6 15 12 21 10 10 16 5 28 -24 25 -61 55 -32 61
60 2 30 -3 46 -17 59 -25 23 -24 31 6 36 14 3 25 2 25 -1 0 -4 9 -7 20 -8 24
-2 26 10 5 27 -23 19 -18 42 16 75 24 23 33 27 47 19 16 -11 18 -16 21 -57 0
-10 15 -25 34 -33 47 -21 69 -36 97 -65 14 -15 34 -28 44 -30 10 -2 24 -13 30
-24 15 -28 28 -36 48 -31 10 2 21 0 24 -6 3 -5 15 -8 25 -5 10 3 32 -5 49 -18
32 -23 56 -22 112 6 26 13 48 11 54 -6 4 -8 18 -15 34 -15 15 0 33 -7 40 -15
9 -11 16 -12 25 -5 9 7 16 6 25 -5 17 -21 33 -19 59 9 19 20 21 32 19 92 -3
66 -2 69 21 72 13 2 33 15 45 29 l22 25 41 -41 c32 -33 48 -41 72 -39 21 1 38
-6 56 -22 22 -21 29 -22 45 -12 17 10 20 10 20 -6 0 -10 -5 -23 -11 -29 -5 -5
-7 -21 -4 -34 5 -22 28 -41 93 -77 13 -8 21 -20 18 -28 -6 -15 36 -30 53 -19
16 9 13 25 -4 25 -8 0 -15 4 -15 9 0 12 81 6 107 -7 10 -5 30 -15 46 -23 32
-15 34 -25 7 -32 -27 -7 -15 -37 15 -37 32 0 41 17 44 79 3 55 17 91 37 91 6
0 17 7 24 15 16 19 25 19 44 -1 13 -12 16 -12 16 -2 0 8 -5 19 -12 26 -9 9 -9
12 0 12 7 0 12 11 12 24 0 13 6 26 14 29 17 7 72 -7 91 -23 11 -9 19 -6 36 14
23 27 53 34 64 16 6 -10 115 66 115 81 0 5 29 38 65 74 38 38 65 74 65 86 0
12 5 19 13 16 6 -2 24 7 39 20 36 34 64 26 125 -37 56 -58 81 -64 90 -20 3 17
10 33 14 36 15 9 10 26 -6 21 -25 -10 -27 12 -5 43 17 24 28 29 53 27 23 -1
32 2 33 13 1 46 64 109 64 65 0 -9 7 -18 15 -21 8 -4 15 -13 15 -20 0 -8 12
-19 27 -25 l26 -10 -21 -15 c-15 -10 -22 -26 -22 -49 0 -29 4 -36 27 -41 21
-6 31 -2 48 19 l21 27 30 -28 c19 -17 34 -43 38 -66 8 -40 1 -76 -15 -76 -13
0 -11 -27 6 -59 8 -16 15 -45 17 -65 1 -21 9 -41 18 -46 8 -5 12 -11 8 -15 -3
-4 -14 -3 -24 3 -22 12 -84 -6 -84 -25 0 -22 19 -53 34 -53 7 0 27 12 44 28
18 15 43 35 57 45 19 14 24 24 19 42 -5 22 -3 23 38 21 33 -1 52 5 82 26 21
15 42 25 47 22 5 -3 9 2 9 10 0 19 36 39 53 30 6 -4 18 -16 25 -25 13 -19 42
-15 42 6 0 7 7 18 15 25 8 7 15 25 15 40 0 53 80 60 93 8 6 -20 32 -24 42 -8
4 6 2 17 -5 25 -8 10 -8 15 0 20 13 8 79 -53 80 -72 0 -7 -7 -13 -15 -13 -19
0 -19 -14 0 -30 8 -7 12 -16 9 -21 -3 -5 6 -14 20 -21 32 -14 36 -49 6 -41
-11 3 -27 15 -35 26 -17 24 -45 31 -45 12 0 -7 7 -18 15 -25 9 -7 13 -21 10
-30 -5 -15 2 -19 34 -25 23 -4 48 -2 60 5 15 7 27 8 39 1 9 -6 11 -11 5 -11
-25 0 -13 -30 15 -36 15 -4 38 -15 52 -25 24 -16 31 -16 85 -4 48 11 66 21 88
50 16 19 35 35 42 35 7 0 21 19 30 42 10 24 20 37 22 31 3 -9 10 -10 24 -3 26
14 25 60 -1 67 -11 3 -20 8 -20 12 0 13 24 31 42 31 10 0 27 9 39 21 15 15 24
17 33 10 9 -8 18 -3 35 19 27 37 40 38 47 3 8 -41 25 -59 62 -66 30 -6 33 -4
47 31 10 23 26 42 44 50 34 15 80 6 89 -17 6 -17 41 -51 52 -51 4 0 13 7 20
15 6 8 36 26 66 39 29 14 69 36 87 50 19 14 47 26 62 26 16 0 37 7 47 16 17
16 19 15 39 -10 12 -15 30 -26 44 -26 14 0 33 -12 47 -29 24 -30 99 -71 130
-71 14 0 17 5 13 23 -3 12 -2 27 2 33 13 19 49 33 69 28 11 -3 32 1 46 9 42
21 85 11 97 -24 14 -42 37 -46 66 -15 24 26 33 56 17 56 -5 0 -9 7 -9 15 0 17
22 20 32 5 4 -6 23 -1 48 12 23 12 56 21 72 20 24 -2 35 5 54 33 13 19 27 35
31 35 15 0 31 -29 38 -70 5 -27 15 -47 27 -54 11 -6 31 -23 44 -38 13 -16 32
-28 42 -28 11 0 19 -6 19 -12 0 -10 2 -10 9 0 7 11 9 11 14 -2 4 -9 12 -16 19
-16 10 0 9 3 -1 9 -12 8 -12 13 3 36 17 26 18 26 37 9 18 -16 19 -16 19 4 0
11 -6 22 -12 25 -10 3 -10 7 0 20 11 12 19 14 40 6 19 -7 33 -7 49 2 29 16 29
23 -3 37 l-25 12 21 30 c24 34 41 38 61 13 11 -13 11 -17 2 -20 -7 -3 -13 -18
-13 -34 0 -22 5 -29 19 -29 28 0 35 -17 21 -50 -8 -19 -22 -31 -41 -35 -16 -4
-29 -10 -29 -15 0 -5 -9 -11 -19 -15 -10 -3 -21 -15 -24 -26 -4 -15 3 -24 33
-39 22 -11 49 -20 61 -20 30 0 50 29 37 54 -11 20 6 40 63 71 23 12 30 12 63
-5 20 -11 43 -20 51 -20 8 0 15 -4 15 -10 0 -5 9 -10 19 -10 16 0 19 -7 18
-47 -2 -43 0 -48 21 -51 30 -4 61 23 55 47 -6 23 22 35 48 21 15 -9 19 -7 19
7 0 9 9 27 21 39 l21 22 46 -19 c39 -17 53 -18 94 -9 72 15 72 15 98 -47 23
-55 85 -129 127 -152 17 -9 31 -7 66 8 25 11 48 24 52 30 12 21 100 58 137 59
21 1 56 11 79 22 23 12 63 25 90 29 47 8 48 7 43 -14 -8 -31 8 -38 47 -22 31
12 34 11 64 -19 29 -28 38 -32 79 -28 26 2 46 -1 46 -7 0 -6 5 -7 10 -4 6 4
27 -10 46 -29 20 -20 40 -36 45 -36 5 0 10 -6 10 -12 1 -7 2 -20 3 -28 1 -17
36 -27 36 -11 0 6 11 11 25 11 14 0 25 5 25 10 0 6 13 10 29 10 17 0 33 5 36
10 4 6 24 19 46 31 32 16 43 18 55 8 8 -7 34 -13 58 -13 25 -1 52 -8 62 -17
27 -23 88 -31 111 -14 24 19 38 18 58 -1 16 -16 104 -22 125 -9 6 4 27 1 48
-6 42 -15 46 -16 67 -18 8 0 18 -16 23 -33 11 -42 34 -46 73 -14 34 29 65 32
117 14 29 -11 35 -10 47 5 12 17 85 25 85 9 0 -5 9 -18 20 -30 16 -17 25 -20
38 -12 9 6 31 19 47 30 45 28 60 24 100 -25 33 -40 40 -44 68 -38 35 7 47 18
47 48 1 56 84 96 113 55 8 -11 33 -27 57 -35 l43 -15 42 34 42 35 69 -11 c38
-5 85 -12 104 -13 19 -2 38 -4 41 -4 3 -1 15 -10 27 -22 l23 -20 63 30 c75 37
83 38 107 8 13 -17 27 -23 49 -22 36 2 32 -2 54 58 13 36 24 49 44 54 15 3 32
13 37 20 15 20 62 7 68 -18 8 -32 59 -23 151 26 47 25 88 45 90 45 2 0 6 -8 8
-18 5 -19 50 -32 111 -32 15 0 36 -6 47 -12 15 -9 23 -10 28 -2 4 6 35 14 70
18 62 7 64 7 102 -28 35 -31 41 -34 64 -23 16 7 26 20 26 33 0 23 26 51 37 41
3 -4 14 0 25 7 21 15 64 9 113 -16 29 -15 32 -14 90 23 33 21 84 50 112 65
l53 27 52 -19 c33 -12 66 -17 88 -14 35 6 69 -5 82 -26 4 -7 30 -20 58 -30 28
-10 57 -28 65 -41 15 -22 16 -22 58 -6 23 9 50 24 59 33 13 14 25 16 58 10 23
-4 47 -13 53 -19 16 -16 42 -14 57 4 7 8 29 15 49 15 20 0 45 7 55 15 11 8 25
15 32 15 18 0 57 -40 72 -72 11 -27 42 -39 42 -18 0 15 26 12 40 -5 8 -10 21
-13 34 -9 29 9 29 9 16 35 -11 19 -10 21 5 16 9 -4 20 -7 25 -7 4 0 29 -20 55
-44 40 -36 47 -48 41 -69 -4 -19 1 -31 23 -53 16 -16 31 -37 32 -47 2 -10 8
-17 13 -15 5 2 12 -7 17 -19 20 -54 56 4 40 63 -5 19 -9 34 -8 34 1 1 40 2 86
4 65 3 86 7 93 20 15 26 123 130 152 146 23 12 29 12 43 -2 10 -11 21 -14 32
-8 9 4 28 13 43 19 17 6 26 16 22 24 -3 8 5 27 18 43 13 16 31 44 41 62 10 18
41 55 68 82 27 27 49 58 49 69 0 31 19 35 43 10 13 -14 22 -18 25 -11 2 7 8
12 13 12 4 0 6 -6 3 -13 -2 -7 4 -21 14 -31 16 -14 24 -15 45 -5 22 10 31 9
54 -7 15 -10 33 -19 40 -20 6 -1 28 -15 48 -30 30 -23 38 -25 46 -13 12 19 11
33 -2 46 -15 15 -3 34 16 26 10 -3 15 2 15 16 0 20 4 22 52 25 23 1 31 12 32
43 1 22 11 31 55 54 56 29 74 29 69 1 -1 -10 4 -27 13 -39 12 -17 22 -21 55
-18 58 6 129 40 129 62 0 26 27 22 41 -5 6 -13 21 -32 33 -43 19 -18 20 -22 6
-35 -19 -19 -19 -24 1 -73 12 -31 13 -44 4 -61 -6 -11 -16 -20 -23 -19 -30 4
-33 -3 -32 -59 2 -67 6 -77 46 -97 38 -20 42 -10 37 90 -4 82 6 92 33 34 24
-49 89 -58 89 -13 0 17 27 19 32 2 3 -8 9 -8 19 -2 17 11 121 33 131 28 3 -2
10 -19 13 -36 9 -38 51 -114 62 -111 66 17 139 51 163 77 11 12 33 35 50 53
17 17 30 42 30 56 0 27 23 52 39 43 16 -10 41 5 41 25 0 10 5 19 12 19 6 0 8
3 5 7 -4 3 2 13 14 21 11 8 18 20 16 26 -4 9 6 13 29 14 19 1 34 -3 34 -8 0
-27 44 -48 113 -54 86 -8 127 -18 124 -30 -1 -5 13 -10 31 -10 17 -1 32 2 32
7 0 4 21 7 48 7 35 0 52 5 65 20 9 11 23 20 32 20 17 0 35 30 35 58 0 20 18
32 46 32 9 0 12 -4 9 -10 -10 -16 21 -12 35 5 7 8 10 22 6 30 -4 11 8 24 37
43 31 19 42 33 39 47 -4 25 -34 85 -43 85 -4 0 -9 9 -12 20 -7 27 37 50 96 50
35 0 54 -8 97 -40 29 -22 57 -40 60 -40 4 0 15 -18 26 -40 10 -22 27 -42 36
-46 14 -4 15 -10 7 -32 -21 -55 -20 -100 4 -122 35 -33 107 -70 136 -70 14 0
39 -7 55 -15 19 -10 33 -12 39 -6 5 5 16 7 23 4 23 -8 40 13 59 72 9 30 23 55
30 55 7 0 25 10 40 22 23 18 25 22 11 30 -20 11 -12 26 20 38 15 6 24 18 24
30 0 12 7 35 16 52 9 17 13 40 10 54 -5 17 -2 24 7 24 8 0 22 9 32 20 33 36
91 18 83 -27 -2 -13 2 -17 17 -15 11 1 38 4 59 7 21 3 46 11 55 19 10 9 22 12
30 7 16 -10 129 11 158 29 12 8 29 35 38 60 24 66 30 75 56 78 37 6 50 21 38
43 -5 11 -7 24 -4 29 9 15 41 12 55 -5 7 -8 21 -15 32 -15 16 0 19 5 14 24 -3
14 -2 27 3 30 5 3 11 -3 14 -14 7 -26 37 -26 37 0 0 21 65 61 87 53 7 -3 21
10 32 29 11 18 23 38 28 43 4 6 16 23 27 39 13 20 20 25 26 16 5 -8 36 -13 86
-14 l79 -2 36 38 c28 30 43 38 71 38 28 0 44 9 76 39 38 37 43 39 70 29 27
-10 32 -8 66 25 37 38 91 69 136 80 14 4 34 21 45 39 11 18 27 44 36 58 22 36
56 50 105 43 35 -4 44 -2 57 17 8 12 30 25 47 29 26 5 35 14 46 46 7 22 14 48
14 57 0 23 34 32 60 16 18 -11 23 -11 33 2 7 8 24 20 38 27 24 11 31 7 110
-68 62 -58 90 -78 106 -76 15 3 23 -2 26 -15 5 -17 10 -15 46 20 l41 39 72 -4
c74 -4 138 -25 138 -45 0 -10 46 -58 56 -58 9 0 4 59 -6 65 -5 3 -10 22 -10
41 0 31 3 34 29 34 33 0 91 -19 91 -30 0 -4 14 -10 31 -14 26 -5 35 -1 56 25
l26 30 36 -39 c20 -21 56 -50 81 -63 25 -13 51 -28 59 -34 8 -5 26 -11 40 -11
14 -1 38 -5 54 -8 29 -7 59 4 94 37 18 16 31 19 72 14 43 -5 52 -3 78 21 16
15 34 39 41 55 8 18 19 27 35 27 30 0 63 36 72 79 4 18 15 41 24 50 10 10 21
25 24 35 11 27 32 13 35 -22 2 -20 9 -32 18 -32 10 0 14 -12 14 -37 0 -21 6
-49 13 -63 14 -27 12 -54 -4 -44 -12 7 -11 -6 2 -45 6 -17 14 -31 19 -31 8 0
36 31 33 37 -2 1 -2 4 0 6 6 5 76 -71 70 -77 -6 -6 22 -36 34 -36 21 0 32 -23
21 -43 -7 -14 -7 -22 0 -26 7 -4 8 -12 2 -21 -7 -11 -14 -12 -33 -3 -22 10
-26 9 -36 -14 -7 -16 -17 -23 -26 -19 -24 9 -17 -11 12 -34 45 -35 74 -21 88
42 5 28 35 40 35 15 0 -7 6 -21 13 -30 10 -15 17 -16 45 -6 17 6 33 16 33 22
5 40 -5 123 -15 129 -12 8 -2 11 26 9 12 -2 15 4 11 19 -6 24 -3 24 -41 4 -37
-18 -49 -13 -49 20 -1 19 7 26 41 36 l41 13 -30 8 c-16 5 -37 6 -46 4 -11 -4
-18 1 -21 13 -7 26 -69 38 -84 17 -14 -18 -78 -21 -72 -2 3 6 18 13 35 15 21
2 37 12 48 29 10 15 20 21 24 15 3 -6 18 -13 32 -17 20 -5 28 -1 39 19 9 18
22 26 40 26 15 0 33 7 40 15 10 12 8 16 -13 24 l-26 10 25 45 c23 40 28 45 57
42 18 -2 45 -15 62 -30 l28 -26 -31 -33 c-18 -18 -32 -38 -32 -44 0 -6 -7 -16
-16 -24 -11 -9 -14 -22 -10 -43 3 -19 0 -38 -9 -50 -16 -22 -4 -46 23 -46 8 0
23 -10 34 -22 15 -17 23 -20 36 -12 19 11 52 7 52 -7 0 -14 26 -10 40 6 14 17
70 17 81 1 4 -5 15 -5 25 -1 11 4 32 9 47 11 34 3 74 46 83 88 11 52 26 67 57
60 22 -5 32 -1 44 15 8 12 19 18 25 15 6 -4 6 2 -1 15 -7 11 -16 21 -21 21
-19 0 -10 17 14 28 14 6 26 21 28 34 2 15 11 24 26 26 18 3 22 10 22 38 0 19
-4 34 -10 34 -9 0 6 23 39 57 10 11 11 20 3 38 -10 21 -7 28 17 51 32 30 34
70 3 94 -18 15 -42 70 -42 97 0 8 13 19 29 24 23 8 30 18 35 52 4 22 11 46 15
52 16 20 19 71 5 104 -16 39 -18 102 -4 151 9 31 8 37 -11 52 -20 17 -30 46
-32 98 -1 39 6 54 36 73 15 11 27 26 27 34 0 9 8 22 18 29 16 12 16 14 -5 29
-13 9 -23 21 -23 28 0 6 -12 23 -27 39 -20 21 -26 37 -25 68 1 23 -3 40 -9 40
-19 0 1 91 27 125 13 18 24 37 24 43 0 7 13 12 30 12 24 0 31 5 36 28 3 15 16
50 30 77 13 28 24 59 24 71 0 11 4 24 10 30 6 6 3 22 -10 47 -11 20 -20 45
-20 54 0 9 -15 32 -32 51 -32 32 -33 36 -34 125 -2 119 -1 110 -24 137 -11 12
-17 27 -14 31 3 5 1 9 -4 9 -5 0 -12 12 -14 27 -3 16 -8 35 -12 44 -4 10 -1
23 7 31 8 8 18 30 21 49 8 37 25 78 41 95 6 6 21 27 35 47 26 38 40 47 40 23
0 -32 182 -27 243 7 42 23 73 70 68 102 -5 33 -18 39 -58 26 -21 -7 -60 -11
-88 -9 l-50 3 23 21 c12 12 24 30 26 40 9 42 26 74 41 74 19 0 31 46 16 64 -7
8 -13 50 -15 93 -3 88 -8 103 -36 103 -28 0 -34 18 -20 60 11 33 11 41 -3 54
-9 9 -22 16 -30 16 -11 0 -16 36 -7 48 2 1 3 5 4 10 1 4 6 22 10 41 5 18 19
54 31 80 13 25 29 74 36 107 13 63 8 87 -34 147 -10 14 -9 19 2 26 10 6 12 19
7 42 -4 19 -8 43 -10 54 -1 11 -14 46 -29 77 -15 31 -27 66 -27 77 0 11 -9 35
-20 54 -17 28 -19 42 -12 79 5 27 5 53 0 62 -5 9 -7 20 -4 24 11 18 -23 100
-54 130 -17 18 -28 37 -25 43 4 5 -1 19 -10 29 -23 25 -23 84 -1 109 18 20 16
51 -4 51 -5 0 -10 6 -10 14 0 8 -6 21 -14 29 -12 12 -9 16 18 31 32 17 66 65
66 93 0 9 -8 22 -17 29 -16 12 -15 13 14 14 33 0 63 22 63 44 0 8 7 19 15 26
8 7 15 21 15 32 0 16 -5 19 -24 14 -19 -5 -26 -1 -31 13 -3 11 -20 28 -37 39
-30 20 -31 20 -62 1 -55 -34 -112 -18 -117 32 -6 70 0 88 40 113 42 27 61 79
34 95 -7 4 -15 24 -17 44 -2 20 -9 44 -17 53 -17 20 -16 102 0 133 7 12 21 21
36 21 18 0 30 12 54 57 17 31 31 63 31 72 0 8 6 30 12 49 11 31 11 35 -10 50
-22 17 -22 17 -2 32 11 8 20 18 20 23 0 5 -6 4 -14 -2 -18 -15 -28 0 -22 34 3
15 0 25 -7 25 -7 0 -6 4 3 10 11 7 12 12 3 21 -8 8 -9 19 -3 35 7 16 6 24 -1
24 -7 0 -9 12 -7 30 3 18 0 31 -8 34 -7 3 -18 24 -25 48 -7 24 -16 47 -21 53
-4 5 -8 17 -8 26 0 9 -6 22 -13 28 -8 6 -20 29 -27 51 -8 24 -21 42 -34 46
-12 4 -39 21 -62 39 -46 38 -91 66 -152 94 -23 11 -45 28 -48 38 -4 10 -20 46
-35 79 -16 34 -29 71 -29 82 0 25 -27 101 -42 120 -7 8 -13 19 -14 26 -1 6
-13 37 -28 68 -14 31 -26 61 -26 65 0 5 -14 17 -30 26 -17 10 -37 33 -44 52
-8 18 -23 36 -34 39 -11 4 -25 20 -32 35 -14 36 -112 137 -140 146 -11 3 -20
11 -20 16 0 5 -6 9 -14 9 -15 0 -38 74 -32 105 2 11 -1 29 -7 40 -6 11 -10 28
-8 38 1 10 -6 25 -16 32 -10 7 -15 17 -11 20 15 15 -22 63 -61 78 -22 9 -51
32 -66 51 -15 20 -30 35 -33 34 -18 -3 -61 15 -66 29 -3 8 -10 11 -16 8 -5 -3
-10 -1 -10 4 0 23 -4 26 -39 43 -26 12 -38 13 -43 5 -5 -8 -8 -6 -8 6 0 9 5
17 12 17 6 0 8 3 5 6 -4 4 -13 1 -21 -5 -12 -10 -21 -5 -50 23 -19 20 -42 36
-50 36 -9 0 -30 9 -48 20 -18 11 -29 20 -24 20 5 0 3 7 -4 15 -7 8 -9 15 -6
15 4 0 0 10 -8 22 -9 12 -16 33 -16 46 0 13 -4 20 -10 17 -6 -4 -10 6 -10 23
0 15 -9 38 -20 50 -11 12 -20 25 -20 31 0 22 -37 71 -60 81 -14 5 -32 14 -40
18 -41 24 -61 32 -77 32 -10 0 -35 20 -56 44 -39 47 -86 76 -119 76 -11 0 -31
9 -45 20 -14 11 -32 20 -39 20 -8 0 -14 10 -14 22 0 13 -18 39 -45 64 -25 23
-45 46 -45 52 0 5 -7 13 -16 16 -8 3 -13 10 -10 14 3 5 -4 21 -15 38 -10 16
-19 43 -19 61 0 23 -9 40 -32 62 -18 17 -38 31 -44 31 -6 0 -17 14 -24 31 -8
17 -25 35 -42 42 -22 9 -42 33 -72 87 -61 112 -80 140 -93 140 -13 0 -19 15
-28 75 -10 60 -26 90 -57 111 -15 11 -28 24 -28 30 0 6 -13 28 -30 50 -16 21
-30 43 -30 48 0 12 -27 32 -75 57 -22 12 -51 31 -65 44 -24 21 -119 52 -225
74 -100 20 -121 20 -152 1 -16 -10 -62 -21 -101 -25 -40 -4 -75 -11 -78 -16
-7 -12 -71 -12 -93 0 -15 9 -91 15 -291 23 -36 2 -71 -1 -78 -6 -7 -5 -34 -10
-60 -11 -26 0 -55 -5 -65 -9 -17 -8 -120 -2 -202 10 -110 17 -211 11 -340 -21
-38 -10 -88 -19 -110 -20 -22 -1 -50 -6 -63 -11 -12 -5 -41 -8 -65 -7 -23 2
-59 3 -80 3 -21 0 -57 6 -81 14 -74 25 -158 30 -194 12 -18 -9 -32 -14 -32
-10 0 3 -11 -1 -25 -10 -13 -9 -39 -16 -57 -15 -18 1 -58 -6 -88 -14 -120 -34
-192 -41 -261 -24 -94 22 -270 17 -340 -11 -30 -11 -85 -28 -124 -37 -38 -9
-75 -21 -82 -27 -6 -5 -33 -8 -60 -5 -26 2 -56 -1 -65 -7 -13 -8 -25 -7 -45 5
-16 9 -41 15 -58 14 -16 -1 -45 4 -64 11 -27 11 -55 12 -148 3 -113 -10 -116
-11 -152 -46 -77 -75 -96 -82 -220 -79 -87 3 -113 1 -122 -10 -12 -15 -53 -13
-100 5 -26 9 -74 7 -159 -9 -30 -5 -116 -8 -190 -6 -76 2 -145 -1 -157 -7 -16
-7 -27 -6 -38 3 -21 18 -159 14 -189 -5 -13 -9 -39 -15 -59 -13 -25 1 -45 -6
-68 -23 -64 -48 -143 -77 -155 -57 -4 5 -10 5 -18 -1 -12 -10 -88 -7 -107 4
-5 4 -12 0 -15 -9 -6 -16 -17 -15 -79 8 -49 17 -275 27 -275 11 0 -6 -4 -5 -8
2 -17 27 -57 22 -96 -13 -21 -19 -42 -34 -46 -34 -19 0 -35 -118 -17 -131 4
-3 -4 -11 -18 -17 -16 -8 -25 -8 -25 -1 0 6 -4 7 -10 4 -5 -3 -10 -1 -10 4 0
6 5 11 11 11 5 0 8 4 5 9 -7 11 -66 3 -83 -10 -6 -6 -51 -14 -99 -19 -70 -7
-92 -6 -115 5 -36 19 -63 19 -79 0 -7 -8 -33 -21 -58 -29 -39 -11 -48 -18 -55
-45 -4 -18 -14 -34 -22 -38 -8 -3 -15 -11 -15 -19 0 -23 -49 -47 -103 -51
-203 -16 -286 -15 -305 3 -11 12 -24 14 -51 8 -20 -4 -61 -8 -91 -10 -30 -1
-78 -7 -106 -12 -33 -5 -56 -5 -67 2 -13 8 -25 7 -48 -6 -33 -20 -72 -16 -101
10 -14 12 -20 12 -33 2 -12 -10 -15 -10 -15 3 0 9 -13 25 -30 37 -16 12 -30
28 -30 36 0 8 -4 15 -10 15 -5 1 -14 2 -19 3 -4 0 -23 15 -41 33 -27 26 -30
34 -21 51 6 11 9 27 6 34 -7 16 -69 48 -95 48 -10 0 -31 11 -47 24 -24 20 -37
24 -72 20 -24 -2 -50 -9 -58 -15 -24 -20 -69 -12 -136 25 -35 20 -67 33 -70
29 -4 -3 -13 -1 -20 5 -8 7 -16 9 -19 6 -9 -9 -68 25 -68 39 0 7 -10 14 -22
15 -13 1 -32 4 -43 6 -11 3 -24 5 -29 5 -4 1 0 13 9 28 17 25 17 26 0 19 -13
-4 -16 -2 -11 9 5 15 -5 21 -17 9 -9 -9 -157 -10 -157 -2 0 7 -41 22 -62 23
-4 0 -18 9 -30 20 -13 11 -32 21 -42 22 -10 2 -27 12 -36 23 -9 11 -20 17 -24
13 -3 -3 -6 3 -6 15 0 16 -4 20 -17 15 -11 -4 -14 -3 -9 5 4 7 3 12 -3 12 -5
0 -12 13 -16 29 -6 28 -12 32 -153 100 -17 9 -35 24 -38 33 -4 13 -16 18 -44
18 -32 0 -44 7 -75 41 -35 40 -41 42 -129 56 -50 7 -118 19 -151 25 -33 6
-132 10 -220 10 -88 -1 -194 3 -235 8 -121 16 -222 32 -235 36 -6 3 -14 2 -18
-2z m233 -119 c16 -8 40 -26 53 -39 16 -16 42 -27 73 -32 26 -4 70 -20 96 -35
27 -16 53 -29 58 -29 6 0 10 -5 10 -11 0 -14 106 -60 124 -53 8 3 28 -8 45
-25 17 -17 31 -26 31 -20 0 6 13 1 28 -10 16 -11 37 -20 48 -19 10 0 30 -2 44
-6 19 -5 32 -1 50 16 13 13 29 21 35 19 5 -1 29 -6 53 -10 23 -3 42 -10 41
-15 0 -5 6 -13 15 -18 9 -5 16 -17 16 -27 0 -9 14 -27 31 -40 17 -13 28 -29
25 -36 -3 -8 -2 -15 2 -17 10 -4 73 -87 90 -115 6 -13 12 -29 12 -37 0 -8 20
-29 46 -47 25 -18 52 -48 61 -66 8 -18 22 -33 29 -33 8 0 14 -5 14 -10 0 -6
16 -18 36 -27 27 -13 39 -15 53 -6 17 11 71 7 71 -6 0 -3 20 -17 45 -30 25
-13 45 -28 45 -34 0 -16 41 -57 57 -57 7 0 21 -4 31 -9 9 -5 25 -12 35 -15 9
-3 21 -16 26 -28 12 -30 57 -72 69 -64 5 3 15 -1 22 -9 7 -8 9 -15 6 -15 -4 0
-4 -5 -1 -10 5 -8 11 -8 19 -1 34 28 100 15 89 -17 -3 -9 -3 -14 1 -10 4 3 19
0 34 -8 27 -14 52 -4 52 21 0 21 30 26 63 10 18 -8 44 -13 60 -11 15 2 27 -1
27 -7 0 -5 10 -6 23 -3 46 14 57 15 57 4 0 -7 16 -9 45 -5 33 5 57 1 91 -13
25 -11 49 -18 53 -15 11 6 155 -36 159 -47 2 -5 15 -2 28 7 13 8 45 18 71 21
27 3 63 13 81 21 29 12 137 18 249 14 6 -1 14 -9 18 -20 4 -12 12 -17 28 -14
12 2 36 -1 52 -8 54 -21 93 -22 100 0 5 16 12 18 45 14 31 -4 40 -2 40 9 0 16
16 35 67 82 23 21 44 30 75 32 58 4 68 7 100 28 39 26 106 33 114 12 4 -11 18
-16 43 -16 20 0 41 -4 46 -9 6 -5 27 -13 47 -16 30 -6 39 -4 44 9 3 9 15 16
25 16 10 0 40 20 67 45 47 44 114 85 138 85 6 0 30 14 53 30 23 17 53 35 67
40 13 5 24 16 24 24 0 10 17 17 54 21 60 8 109 0 143 -21 12 -8 33 -14 45 -14
13 0 32 -6 43 -14 11 -7 50 -26 87 -40 l68 -27 35 34 c23 23 49 37 75 41 28 4
38 10 34 20 -3 7 2 16 11 20 9 3 14 10 11 14 -6 10 73 52 97 52 9 0 19 5 23
11 4 8 25 9 63 4 65 -8 51 -7 208 -5 83 1 127 5 135 14 7 7 21 15 31 19 9 3
17 13 17 21 0 13 4 13 34 1 19 -8 37 -11 40 -6 8 12 56 20 56 10 0 -16 57 -38
100 -37 23 0 45 -5 49 -11 4 -6 34 -13 67 -15 32 -3 78 -8 102 -12 30 -5 42
-3 42 5 0 9 13 10 45 5 26 -3 45 -2 43 2 -2 5 7 20 20 34 12 13 22 30 22 38 0
11 8 13 35 8 42 -8 71 5 79 36 3 14 29 37 61 57 39 24 54 39 50 50 -10 33 35
61 56 35 9 -11 23 -13 50 -9 21 4 44 3 51 -1 7 -5 29 -9 48 -11 19 -1 59 -11
88 -22 28 -11 52 -18 52 -15 0 3 15 -3 33 -13 25 -15 41 -17 72 -11 22 4 54 9
70 12 17 2 41 9 55 14 19 7 35 6 59 -4 37 -16 53 -11 29 9 -12 9 -13 19 -6 45
l9 33 62 -2 c42 -1 73 4 96 15 31 16 35 16 74 1 23 -9 57 -18 75 -20 19 -2 43
-12 55 -23 12 -11 36 -23 52 -27 17 -4 43 -12 59 -18 24 -9 31 -8 41 7 7 9 17
16 21 15 21 -4 33 2 38 19 4 13 16 18 40 18 39 0 64 17 77 52 5 13 18 26 28
29 11 3 22 11 25 19 11 29 124 58 165 42 14 -5 44 -10 66 -10 61 -1 142 -34
157 -65 10 -21 22 -27 56 -30 23 -2 42 0 42 6 0 10 33 5 66 -11 16 -7 30 -5
60 11 21 11 51 26 67 33 15 7 27 19 27 26 0 10 8 13 25 10 14 -3 30 1 36 8 6
8 24 14 38 14 15 0 36 7 47 15 27 20 103 19 166 -4 82 -30 103 -32 146 -17 22
8 42 13 44 11 2 -2 22 -5 43 -6 22 -1 45 -6 51 -11 6 -4 22 -7 35 -5 12 2 34
-2 48 -9 17 -9 29 -10 35 -4 6 6 21 10 35 10 13 0 39 5 57 12 29 10 35 9 70
-19 47 -36 121 -60 137 -44 6 6 31 11 56 11 26 0 64 6 86 14 42 15 65 12 65
-10 0 -18 64 -47 89 -39 19 6 19 6 1 48 -11 23 -16 45 -12 49 13 13 104 29
156 28 26 -1 59 -8 71 -16 13 -8 29 -14 37 -13 28 3 38 -2 38 -20 0 -11 4 -22
8 -25 5 -3 9 -30 10 -61 1 -31 9 -71 18 -91 9 -19 14 -37 11 -40 -9 -9 14 -67
41 -103 14 -19 26 -50 28 -71 1 -21 21 -72 43 -115 23 -42 41 -83 41 -90 0 -7
7 -18 15 -25 8 -7 19 -26 23 -43 6 -24 20 -37 58 -57 27 -13 55 -30 62 -37 7
-7 21 -13 30 -13 9 0 40 -16 69 -36 53 -36 56 -43 56 -107 0 -21 6 -32 23 -39
14 -7 27 -23 31 -37 3 -14 11 -31 17 -37 29 -31 46 -55 46 -66 0 -6 10 -22 21
-34 12 -13 22 -33 23 -46 0 -12 10 -27 21 -33 46 -24 71 -46 88 -78 13 -24 36
-43 72 -61 30 -14 58 -26 62 -26 19 0 131 -65 145 -85 4 -5 8 -23 8 -38 0 -17
10 -37 25 -51 14 -13 25 -29 25 -36 0 -7 13 -29 28 -49 16 -20 34 -51 41 -68
8 -18 17 -33 21 -33 5 0 13 -13 18 -29 6 -16 30 -43 56 -60 25 -18 46 -39 46
-48 0 -30 81 -82 170 -108 31 -9 80 -36 80 -44 0 -6 11 -13 24 -17 15 -4 29
-17 35 -36 6 -16 24 -43 42 -58 18 -18 28 -34 23 -41 -4 -7 -3 -9 4 -5 6 3 13
-2 17 -13 5 -16 15 -31 55 -78 5 -6 15 -29 22 -51 8 -27 23 -46 43 -58 38 -21
64 -53 65 -78 0 -11 2 -17 6 -14 3 3 26 -14 51 -38 25 -24 50 -44 56 -44 6 0
17 -7 26 -15 9 -8 31 -27 49 -41 17 -14 32 -34 32 -45 0 -18 14 -46 58 -118
11 -18 19 -39 16 -45 -2 -6 11 -21 29 -32 52 -35 109 -166 121 -283 3 -30 10
-57 16 -61 5 -3 12 -25 14 -48 2 -23 11 -49 20 -57 9 -9 16 -22 16 -29 0 -7
13 -39 29 -72 46 -96 47 -101 10 -119 -31 -16 -31 -17 -24 -73 4 -31 13 -67
20 -79 12 -17 12 -33 3 -80 -14 -78 -13 -94 8 -138 15 -32 16 -42 5 -69 -7
-17 -17 -50 -22 -74 -5 -24 -13 -50 -18 -59 -11 -21 0 -52 40 -115 25 -39 29
-53 25 -91 -3 -25 -9 -52 -12 -61 -4 -9 0 -24 8 -34 23 -26 35 -71 37 -142 1
-36 6 -82 12 -102 5 -21 7 -48 4 -61 -4 -13 3 -46 15 -76 11 -29 19 -68 18
-86 -2 -33 39 -108 66 -118 7 -3 18 -24 25 -48 7 -24 17 -58 22 -75 5 -17 9
-40 9 -52 0 -11 8 -25 17 -31 14 -8 15 -13 5 -35 -10 -22 -9 -26 8 -31 26 -8
43 -40 35 -66 -4 -13 2 -29 19 -49 31 -37 42 -91 29 -135 -11 -36 -9 -74 8
-146 13 -58 -6 -132 -45 -174 -33 -35 -33 -67 -2 -108 18 -23 22 -37 16 -47
-5 -8 -10 -29 -10 -47 0 -17 -4 -35 -10 -38 -5 -3 -10 -15 -10 -26 0 -10 5
-19 10 -19 6 0 10 -7 10 -15 0 -8 -7 -15 -15 -15 -8 0 -15 4 -15 10 0 5 -12
13 -27 16 -16 4 -43 18 -61 31 l-33 25 -16 -41 c-12 -30 -22 -41 -38 -41 -31
0 -72 -49 -80 -95 -18 -111 -16 -125 20 -169 36 -45 36 -48 6 -145 -8 -26 -7
-40 5 -62 8 -16 19 -29 24 -29 21 0 9 -20 -15 -26 -34 -8 -31 -35 6 -56 26
-15 28 -20 19 -38 -9 -17 -17 -20 -40 -15 -31 7 -28 11 -51 -84 -9 -37 -19
-56 -32 -59 -10 -2 -24 -17 -32 -33 -19 -36 -12 -150 12 -199 15 -31 21 -69
22 -146 1 -13 9 -24 22 -27 14 -4 18 -10 13 -18 -4 -7 -8 -125 -9 -263 -2
-225 0 -253 15 -271 39 -44 36 -65 -15 -99 -12 -9 -20 -27 -21 -47 -2 -47 -22
-125 -39 -159 -9 -18 -12 -41 -9 -59 4 -21 3 -31 -5 -31 -7 0 -29 -18 -48 -40
-20 -22 -40 -40 -46 -40 -5 0 -28 -14 -52 -31 -41 -30 -45 -30 -66 -15 -13 9
-35 16 -49 16 -34 0 -71 -26 -64 -45 5 -11 -1 -15 -23 -15 -30 0 -112 -50
-114 -70 -1 -6 -2 -16 -3 -22 -1 -8 -21 -14 -57 -16 -62 -3 -73 -15 -63 -69 3
-17 -2 -31 -17 -44 -12 -11 -30 -36 -39 -57 -25 -55 -166 -196 -188 -187 -9 4
-41 9 -69 10 -72 3 -96 24 -91 84 2 37 -1 47 -17 56 -11 6 -35 25 -54 43 -35
34 -51 38 -82 22 -15 -8 -17 -15 -10 -28 7 -12 5 -22 -6 -34 -8 -9 -18 -32
-22 -49 -5 -24 -13 -33 -31 -36 -13 -2 -28 -10 -32 -17 -4 -8 -24 -17 -43 -20
-37 -7 -69 -43 -70 -80 -2 -31 -36 -79 -48 -67 -6 6 -20 3 -40 -10 -31 -18
-32 -18 -54 3 -18 17 -22 29 -18 52 5 27 3 33 -25 45 -37 16 -94 31 -132 36
-15 2 -35 10 -44 19 -12 13 -19 14 -30 6 -7 -7 -23 -10 -36 -8 -20 3 -23 8
-21 41 2 37 -10 50 -21 22 -3 -8 -10 -15 -16 -15 -13 0 -13 33 0 46 8 8 -3 24
-35 53 -25 23 -45 46 -45 51 0 6 -4 10 -9 10 -4 0 -6 -22 -3 -49 4 -44 1 -55
-28 -95 -19 -25 -39 -46 -46 -46 -6 0 -25 -7 -40 -15 -20 -10 -43 -13 -71 -9
-34 5 -44 3 -49 -10 -3 -9 -10 -14 -15 -11 -4 3 -17 0 -27 -6 -16 -10 -24 -9
-45 7 -15 10 -27 27 -27 37 0 20 -23 32 -46 23 -12 -5 -14 -10 -5 -19 17 -21
22 -84 7 -96 -7 -6 -29 -9 -49 -8 -38 3 -94 -22 -110 -49 -4 -8 -21 -14 -37
-14 -32 0 -40 -9 -49 -54 -5 -22 -13 -32 -29 -34 -13 -2 -28 -12 -35 -23 -6
-10 -20 -19 -30 -19 -18 0 -52 -17 -75 -37 -19 -18 -96 -10 -100 11 -5 24 -29
19 -48 -9 -19 -29 -50 -33 -58 -7 -7 19 -59 52 -84 52 -32 -1 -67 -27 -67 -52
0 -22 -3 -23 -52 -20 -44 3 -53 0 -63 -18 -7 -12 -9 -32 -6 -45 8 -31 -2 -55
-23 -56 -9 0 -29 -9 -46 -19 -30 -17 -30 -17 -57 8 -15 13 -38 26 -52 27 -14
2 -43 13 -65 26 -54 30 -55 61 -6 90 19 12 35 27 35 35 0 18 -10 18 -48 -2
-23 -11 -36 -12 -51 -5 -23 13 -76 88 -86 123 -4 12 -20 51 -36 86 -18 38 -28
71 -24 82 4 12 2 20 -4 20 -6 0 -11 -7 -11 -15 0 -8 -9 -19 -20 -25 -11 -6
-20 -17 -20 -25 0 -8 -7 -15 -15 -15 -8 0 -15 -6 -15 -14 0 -8 -13 -17 -30
-21 -16 -4 -30 -12 -30 -19 0 -17 -35 -48 -43 -39 -4 4 -19 -8 -34 -25 -14
-18 -30 -32 -35 -32 -5 0 -18 -8 -29 -18 -10 -11 -32 -25 -47 -33 -15 -7 -44
-27 -65 -43 l-38 -30 -31 19 c-34 20 -97 29 -113 15 -5 -4 -33 -4 -61 2 -43 9
-56 7 -78 -7 -20 -13 -24 -23 -20 -41 8 -30 -18 -58 -46 -49 -11 3 -20 10 -20
14 0 7 -43 31 -55 31 -3 0 -5 -7 -5 -15 0 -8 6 -15 14 -15 9 0 12 -12 11 -37
-3 -51 -4 -53 -14 -51 -14 5 -61 -51 -61 -72 0 -10 -4 -22 -10 -25 -5 -3 -10
-14 -10 -24 0 -10 -30 -46 -67 -80 -72 -69 -59 -65 -169 -43 -23 5 -49 5 -57
1 -10 -6 -17 -4 -21 7 -3 8 -21 21 -41 29 -20 9 -32 20 -29 28 3 8 -13 21 -41
35 -37 18 -49 20 -70 10 -28 -13 -30 -19 -13 -36 6 -6 13 -20 15 -29 9 -48 8
-58 -7 -54 -56 15 -116 -10 -125 -51 -4 -15 -15 -33 -26 -39 -25 -13 -44 -58
-30 -72 11 -11 -62 -107 -81 -107 -5 0 -30 -14 -54 -32 l-44 -31 -33 18 c-40
21 -90 10 -96 -21 -2 -10 -23 -38 -47 -61 -50 -47 -54 -69 -20 -119 l24 -36
-20 -38 c-25 -46 -52 -57 -66 -26 -6 13 -41 38 -82 58 l-73 37 -31 -22 c-60
-42 -66 -49 -56 -66 14 -27 -62 -116 -102 -120 -3 -1 -21 13 -39 31 -28 28
-31 30 -24 9 7 -22 7 -22 -19 -6 -27 18 -32 30 -17 39 4 3 6 17 3 31 -3 18 0
25 12 25 18 0 21 15 5 25 -13 8 -53 -28 -80 -72 l-20 -32 -34 16 c-29 14 -55
48 -43 57 1 1 25 15 51 30 40 23 46 30 36 42 -10 13 -14 13 -29 -1 -9 -8 -27
-15 -40 -15 -24 0 -70 35 -70 53 0 5 -9 20 -20 34 -11 14 -20 33 -20 43 0 9
-13 41 -30 71 -16 30 -30 69 -30 88 l0 35 -30 -34 c-16 -18 -30 -37 -30 -42 0
-4 -6 -8 -14 -8 -7 0 -16 -9 -19 -20 -3 -12 -14 -20 -25 -20 -11 0 -29 -11
-39 -24 -10 -13 -30 -27 -43 -31 -14 -4 -31 -16 -38 -26 -8 -11 -25 -19 -43
-19 -16 0 -29 -6 -30 -12 0 -10 -2 -10 -6 0 -8 20 -22 14 -57 -24 -27 -29 -35
-34 -42 -22 -5 8 -17 17 -26 21 -9 3 -22 25 -28 49 -14 53 -50 108 -70 108
-24 -1 -53 -27 -40 -35 7 -4 10 -18 7 -31 -2 -14 0 -27 4 -30 5 -3 9 -12 9
-20 0 -14 -2 -13 -16 0 -8 9 -19 16 -23 16 -6 0 -35 -27 -101 -95 -14 -15 -37
-38 -52 -53 -15 -14 -24 -30 -21 -35 3 -5 -11 -6 -35 -2 -36 6 -42 4 -53 -17
-6 -13 -18 -26 -25 -31 -7 -4 -11 -14 -8 -22 5 -12 -2 -15 -29 -15 -19 0 -40
-7 -47 -15 -7 -8 -28 -15 -47 -15 -23 0 -41 -8 -57 -25 -13 -14 -31 -25 -40
-25 -9 0 -21 -11 -25 -24 -5 -13 -17 -26 -25 -29 -10 -4 -16 -18 -16 -36 0
-33 -9 -41 -54 -51 -25 -5 -31 -11 -29 -31 2 -21 1 -22 -10 -8 -32 41 -97 21
-97 -29 0 -29 -34 -60 -45 -42 -10 16 -23 12 -30 -9 -4 -15 -16 -18 -68 -19
-54 -1 -68 3 -109 30 -48 33 -93 103 -83 130 6 14 -50 98 -66 98 -5 0 -9 6 -9
14 0 13 -39 30 -48 21 -2 -2 3 -25 12 -51 17 -51 14 -64 -14 -64 -30 0 -50
-11 -51 -29 0 -11 -3 -9 -9 7 -7 17 -14 20 -27 13 -60 -30 -177 -35 -225 -10
-9 5 -30 9 -47 9 -30 0 -31 1 -31 46 0 37 -4 47 -19 51 -11 3 -21 13 -24 24
-7 26 -25 24 -38 -4 -10 -23 -63 -61 -84 -62 -5 0 -15 6 -21 14 -10 13 -17 13
-52 -1 -37 -14 -42 -14 -65 1 -13 9 -43 28 -65 43 -63 42 -84 25 -62 -50 10
-36 -4 -72 -27 -72 -7 0 -16 -7 -21 -16 -8 -14 -10 -14 -25 0 -20 20 -26 20
-67 -1 -46 -22 -171 -20 -185 3 -38 63 -140 130 -166 110 -8 -6 -14 -18 -12
-26 5 -26 -42 -72 -76 -75 -21 -1 -41 -13 -61 -35 -29 -33 -31 -33 -44 -14
-13 16 -13 22 0 41 19 30 19 30 -17 48 -23 13 -29 21 -24 37 6 18 4 19 -25 13
-22 -5 -36 -2 -48 9 -25 21 -48 6 -33 -22 19 -36 13 -79 -14 -100 -14 -11 -25
-25 -25 -31 0 -15 -23 -14 -46 4 -25 19 -32 19 -39 -4 -6 -21 -72 -36 -90 -21
-7 6 -46 13 -88 16 -58 5 -74 10 -70 21 8 19 -17 44 -37 38 -9 -3 -28 -1 -41
3 -36 14 -72 -6 -65 -34 6 -24 -18 -46 -65 -57 -14 -4 -37 -18 -51 -32 -35
-35 -58 -24 -58 27 0 39 1 40 30 36 17 -3 30 -1 30 4 0 4 -7 8 -15 8 -9 0 -15
9 -15 24 0 22 -3 23 -50 21 -42 -2 -50 0 -50 15 0 17 -23 30 -62 35 -19 2 -24
-15 -9 -31 21 -22 19 -69 -3 -94 -44 -50 -54 -55 -76 -35 -16 15 -25 16 -43 7
-43 -21 -112 -49 -139 -55 -16 -4 -28 -14 -28 -22 0 -23 -20 -28 -40 -10 -13
12 -19 30 -18 58 0 41 -19 67 -49 67 -7 0 -13 5 -13 10 0 6 -7 10 -15 10 -9 0
-18 7 -21 15 -8 19 -54 20 -54 0 0 -58 -65 -97 -118 -69 -15 7 -33 14 -40 14
-7 0 -26 7 -43 16 -24 12 -29 20 -23 36 5 18 3 20 -25 16 -18 -3 -34 -1 -37 4
-3 4 -17 8 -31 8 -20 0 -24 -3 -18 -17 4 -10 9 -36 11 -58 4 -36 1 -42 -31
-63 -30 -19 -36 -20 -41 -7 -8 20 -26 19 -57 -5 -14 -11 -40 -23 -58 -27 -18
-3 -44 -12 -58 -19 -27 -14 -41 -10 -41 12 0 8 -4 14 -10 14 -5 0 -10 -8 -10
-17 0 -15 -4 -13 -20 7 -12 16 -17 33 -13 48 3 12 1 22 -5 22 -6 0 -14 9 -17
20 -3 11 -12 20 -19 20 -7 0 -31 16 -53 35 -51 43 -76 46 -72 7 4 -37 -6 -51
-58 -73 -74 -32 -92 -24 -84 39 1 6 -5 12 -14 12 -13 0 -15 6 -11 28 4 16 1
35 -6 45 -12 17 -16 17 -50 3 -25 -11 -45 -13 -66 -7 -17 5 -32 8 -34 6 -2 -2
-26 -6 -54 -9 -58 -6 -77 6 -89 56 -6 22 -4 28 9 28 10 0 13 6 10 15 -5 12
-10 13 -20 4 -27 -22 -84 42 -84 96 0 14 -4 25 -10 25 -5 0 -10 -9 -10 -20 0
-11 -6 -20 -14 -20 -8 0 -24 -16 -36 -35 -12 -19 -29 -35 -39 -35 -9 0 -28
-13 -41 -30 -14 -16 -32 -29 -41 -30 -9 0 -19 -7 -23 -15 -8 -21 -76 -60 -106
-60 -14 -1 -35 -4 -48 -9 -16 -5 -29 -3 -41 8 -9 8 -28 17 -42 19 -19 3 -24
10 -24 32 0 30 -20 43 -66 44 -15 1 -29 7 -32 15 -3 7 -27 16 -54 20 -44 5
-51 10 -66 40 -14 29 -22 35 -54 38 -30 2 -39 8 -41 24 -2 14 -16 27 -43 37
-49 19 -73 13 -64 -17 4 -11 8 -28 9 -36 1 -9 5 -21 10 -28 17 -28 -35 -57
-69 -39 -11 6 -22 12 -25 12 -19 2 -68 41 -62 49 11 18 2 60 -17 76 -10 9 -20
22 -24 30 -4 12 -6 12 -6 -2 -1 -14 -6 -15 -37 -6 -26 7 -39 6 -43 -1 -4 -6
-21 -13 -38 -17 -28 -6 -34 -2 -72 50 -23 30 -41 66 -41 80 0 14 -4 28 -10 31
-15 9 -50 95 -50 121 0 13 -4 24 -10 24 -5 0 -10 -4 -10 -10 0 -5 -15 -24 -32
-41 -18 -17 -33 -36 -33 -42 0 -7 -13 -13 -28 -15 -18 -2 -32 -12 -39 -28 -7
-14 -20 -24 -33 -24 -12 0 -31 -13 -43 -30 -13 -17 -29 -30 -36 -30 -7 0 -19
-7 -26 -15 -16 -20 -48 -19 -52 0 -2 12 -11 8 -37 -15 -30 -28 -36 -30 -49
-17 -11 12 -21 13 -44 5 -20 -7 -37 -7 -51 0 -12 5 -33 10 -45 10 -23 1 -72
43 -72 63 0 5 -4 9 -9 9 -14 0 -52 57 -53 77 0 10 3 26 6 35 5 11 -1 24 -19
40 -15 13 -36 40 -46 60 -20 38 -26 42 -52 33 -10 -5 -12 -17 -7 -53 7 -41 4
-52 -19 -84 -14 -20 -36 -42 -48 -49 -12 -7 -29 -27 -38 -45 -9 -19 -20 -34
-25 -34 -13 0 -92 -55 -114 -79 -11 -12 -26 -21 -35 -21 -9 0 -31 -14 -50 -30
-36 -32 -47 -32 -103 -4 -15 8 -40 14 -57 14 -16 0 -32 4 -35 9 -3 4 -23 11
-44 14 -44 8 -102 34 -102 48 0 5 -7 9 -15 9 -8 0 -15 4 -15 10 0 5 -10 10
-22 10 -40 -1 -92 12 -106 26 -11 12 -17 11 -37 -4 -13 -9 -20 -21 -15 -26 11
-11 1 -36 -15 -36 -19 0 -95 -82 -95 -103 0 -33 -20 -58 -40 -52 -22 7 -69
-50 -48 -58 21 -9 -41 -60 -65 -53 -11 2 -30 -2 -43 -10 -17 -12 -27 -13 -43
-4 -12 6 -21 17 -21 24 0 17 -18 51 -48 94 -15 21 -32 32 -48 32 -24 0 -31 2
-91 34 -17 9 -38 16 -47 16 -17 0 -85 68 -86 86 0 6 -7 17 -15 24 -9 7 -13 21
-10 31 4 11 2 19 -5 19 -6 0 -10 8 -8 17 2 10 -4 19 -14 21 -11 2 -18 -3 -18
-12 0 -18 -34 -56 -50 -56 -5 0 -14 -9 -20 -20 -6 -11 -18 -20 -26 -20 -23 0
-99 -57 -114 -86 -8 -13 -18 -24 -23 -24 -6 0 -19 -8 -29 -17 -21 -19 -124
-28 -134 -12 -3 5 -18 9 -35 9 -25 0 -29 4 -29 27 0 15 -10 57 -22 94 -24 76
-47 92 -83 59 -27 -25 -31 -25 -38 0 -3 12 -14 20 -26 20 -26 0 -61 34 -61 58
0 10 -8 27 -17 38 -27 31 -43 62 -43 84 0 12 -4 18 -10 15 -6 -4 -10 7 -10 24
0 17 -4 31 -10 31 -5 0 -10 -9 -10 -20 0 -11 -7 -20 -15 -20 -9 0 -19 -8 -22
-17 -9 -23 -34 -46 -66 -60 -15 -7 -32 -24 -39 -38 -6 -14 -19 -25 -28 -25 -9
0 -25 -7 -36 -15 -11 -8 -41 -15 -71 -15 -28 0 -55 -5 -58 -11 -4 -5 -19 -9
-33 -8 -47 4 -62 -1 -62 -18 0 -30 -31 -53 -71 -53 -30 0 -42 -6 -55 -25 -9
-14 -24 -25 -34 -25 -10 0 -23 -7 -30 -15 -7 -8 -9 -15 -4 -15 4 0 -2 -10 -14
-22 -11 -13 -25 -35 -31 -50 -6 -16 -17 -28 -25 -28 -7 0 -19 -7 -26 -15 -27
-33 -60 0 -60 60 0 55 -8 75 -29 75 -10 0 -30 16 -46 35 -24 31 -30 34 -44 22
-9 -8 -26 -18 -38 -21 -23 -7 -32 -41 -13 -48 5 -2 -6 -15 -25 -31 l-34 -27
-33 18 c-18 10 -35 27 -37 38 -2 10 -10 23 -18 28 -8 4 -21 23 -29 42 -8 19
-19 34 -24 34 -6 0 -10 7 -10 15 0 8 -4 15 -10 15 -5 0 -10 14 -10 30 0 17 -4
30 -10 30 -5 0 -10 -9 -10 -20 0 -11 -5 -20 -11 -20 -14 0 -59 -47 -59 -61 0
-5 -7 -9 -16 -9 -9 0 -29 -15 -46 -34 -17 -19 -36 -32 -44 -29 -8 3 -17 -2
-20 -11 -7 -19 -107 -86 -127 -86 -7 0 -26 -13 -42 -30 -33 -35 -55 -38 -80
-10 -10 11 -25 22 -34 25 -10 3 -21 17 -27 31 -10 28 -66 53 -119 54 -50 0
-75 11 -81 35 -3 13 -14 31 -25 41 -10 9 -19 24 -19 32 0 9 -7 24 -17 34 -13
14 -14 23 -5 42 10 22 7 27 -19 48 -17 13 -37 36 -45 51 -21 40 -33 25 -22
-27 7 -35 6 -51 -7 -75 -8 -17 -20 -31 -25 -31 -6 0 -10 -6 -10 -14 0 -8 -14
-17 -30 -21 -17 -4 -30 -13 -30 -21 0 -8 -15 -21 -33 -29 -18 -7 -41 -23 -51
-34 -22 -25 -116 -84 -116 -74 0 4 -15 -8 -34 -26 -35 -34 -61 -36 -86 -6 -7
8 -20 15 -30 15 -9 0 -22 11 -28 25 -8 18 -19 25 -40 25 -16 0 -32 3 -36 7 -4
4 -23 6 -43 4 -22 -2 -39 2 -44 11 -5 7 -13 13 -19 13 -11 0 -16 8 -59 86 -25
46 -32 80 -19 90 4 3 -10 24 -32 47 -22 23 -40 46 -40 52 0 5 -9 10 -21 10
-16 0 -19 -4 -14 -17 21 -53 23 -75 9 -108 -8 -19 -19 -35 -24 -35 -6 0 -10
-7 -10 -15 0 -10 -10 -15 -30 -15 -16 0 -30 -4 -30 -10 0 -5 -6 -10 -13 -10
-16 0 -87 -66 -87 -80 0 -6 -5 -10 -10 -10 -6 0 -23 -9 -38 -20 -15 -11 -38
-22 -50 -25 -13 -2 -32 -7 -43 -10 -12 -4 -29 2 -45 14 -15 12 -35 21 -45 21
-13 0 -17 6 -14 21 6 29 -45 129 -70 139 -13 5 -29 1 -48 -12 -16 -11 -31 -17
-35 -14 -3 4 0 11 7 15 19 12 5 31 -23 31 -27 0 -52 27 -86 92 -13 27 -29 48
-33 48 -5 0 -7 12 -4 26 3 16 0 28 -9 31 -8 3 -14 14 -14 24 0 10 -4 19 -10
19 -5 0 -10 -7 -10 -15 0 -18 -71 -91 -97 -99 -10 -3 -26 -19 -35 -36 -10 -17
-25 -30 -36 -30 -11 0 -26 -7 -33 -17 -22 -26 -116 -83 -138 -83 -11 0 -29
-10 -40 -21 -18 -20 -22 -20 -43 -8 -24 15 -100 17 -150 4 -19 -5 -32 -2 -43
9 -9 9 -24 16 -33 16 -9 0 -32 24 -50 53 -26 42 -31 59 -27 88 5 30 2 38 -19
55 -14 10 -26 26 -26 35 0 8 -11 26 -25 39 -22 21 -27 22 -40 9 -11 -11 -12
-22 -3 -56 11 -39 10 -43 -20 -80 -69 -84 -77 -93 -85 -93 -10 0 -28 -15 -87
-72 -27 -26 -63 -54 -82 -64 -18 -9 -50 -30 -71 -47 -38 -29 -40 -30 -66 -14
-28 16 -58 19 -159 14 -30 -1 -56 1 -59 6 -7 12 -42 8 -69 -9 -19 -13 -22 -20
-13 -30 28 -34 -23 -61 -55 -29 -26 27 -46 18 -46 -20 0 -19 5 -35 11 -35 5 0
-3 -17 -18 -37 -33 -44 -143 -153 -155 -153 -4 0 -8 -5 -8 -11 0 -20 -44 -48
-67 -42 -14 3 -23 1 -23 -6 0 -6 5 -10 11 -8 6 1 14 -4 16 -10 7 -19 -26 -28
-48 -15 -10 7 -28 12 -39 12 -12 0 -17 5 -14 14 3 8 1 17 -5 21 -13 8 -60 -25
-61 -42 0 -17 -22 -16 -46 2 -10 8 -33 15 -50 15 -29 0 -33 4 -45 47 -7 27
-12 58 -11 70 1 13 -6 27 -17 33 -11 5 -22 18 -25 27 -8 23 -62 54 -81 47 -8
-3 -15 -16 -15 -27 0 -76 -2 -87 -16 -85 -8 2 -20 -8 -27 -22 -10 -19 -19 -24
-39 -22 -19 2 -30 -3 -37 -17 -10 -17 -19 -20 -70 -16 -77 5 -99 17 -107 60
-3 19 -11 35 -16 35 -6 0 -30 21 -53 47 -42 45 -45 47 -69 33 -23 -12 -31 -11
-61 3 -19 9 -35 23 -35 30 0 8 -9 22 -20 32 -11 10 -20 26 -20 35 0 10 -6 23
-14 29 -21 17 -56 97 -56 126 0 14 -4 25 -10 25 -5 0 -10 -7 -10 -15 0 -19
-36 -55 -55 -55 -8 0 -15 -9 -15 -20 0 -17 -7 -20 -39 -20 -22 0 -43 -4 -46
-10 -3 -5 -19 -10 -34 -10 -16 0 -39 -11 -57 -28 -16 -16 -44 -34 -61 -41 -18
-8 -33 -17 -33 -22 0 -5 -9 -13 -20 -19 -27 -14 -70 14 -70 45 0 14 -14 35
-34 53 -19 16 -36 38 -38 48 -2 11 -10 17 -19 14 -28 -9 -81 -3 -89 10 -4 7
-14 10 -21 8 -8 -3 -24 -1 -36 3 -14 5 -23 5 -23 -1 0 -16 -36 -11 -61 9 -23
18 -23 18 -2 29 15 8 19 18 16 37 -5 25 -12 29 -44 26 -9 -1 -28 12 -42 29
-35 41 -47 39 -36 -7 11 -50 11 -65 -1 -58 -6 3 -10 -5 -10 -19 0 -24 -2 -25
-55 -21 -51 4 -56 3 -77 -25 -12 -17 -27 -30 -32 -30 -14 0 -66 -55 -66 -69 0
-6 -8 -11 -18 -11 -10 0 -33 -11 -52 -25 -19 -14 -44 -25 -56 -25 -25 0 -48
23 -42 42 4 12 -14 38 -26 38 -3 0 -15 9 -26 20 -11 11 -33 20 -49 20 -17 0
-33 5 -36 10 -3 6 -19 10 -36 10 -16 0 -29 5 -29 12 0 6 -21 30 -46 53 -32 30
-47 51 -50 76 -3 19 -16 44 -30 56 -13 12 -24 24 -24 27 0 15 -51 56 -69 56
-16 0 -25 9 -33 31 -6 16 -13 28 -16 24 -8 -8 -52 36 -52 52 0 7 -5 13 -11 13
-5 0 -15 13 -20 29 -8 22 -15 28 -30 24 -14 -4 -19 0 -19 16 0 11 -4 21 -10
21 -5 0 -9 10 -7 22 1 17 -4 24 -21 26 -13 2 -31 16 -40 32 -22 38 -42 49
-109 57 -40 4 -65 13 -83 30 -13 12 -35 23 -48 23 -16 0 -30 13 -50 45 -15 24
-35 47 -45 51 -14 4 -16 12 -11 42 8 43 41 92 62 92 8 0 25 9 39 20 14 11 38
20 52 20 16 0 33 9 45 25 14 18 25 23 41 19 17 -4 26 0 34 15 14 25 7 29 -44
27 -32 -1 -40 -5 -38 -19 1 -13 -3 -16 -15 -11 -67 27 -175 27 -219 -2 -32
-20 -140 -11 -200 18 -18 9 -26 6 -52 -21 -18 -18 -28 -37 -25 -46 4 -8 1 -15
-5 -15 -6 0 -16 -11 -21 -25 -5 -14 -14 -25 -19 -25 -11 0 -52 33 -90 72 -14
15 -58 43 -97 62 -96 47 -111 86 -35 86 25 0 44 7 55 19 10 10 37 24 62 30 37
10 47 18 62 49 9 20 22 40 27 44 6 4 10 20 11 35 1 65 6 107 11 96 7 -20 43
-16 43 4 0 14 3 14 12 5 10 -10 10 -14 0 -21 -7 -4 -12 -14 -10 -21 4 -16 46
-54 70 -63 44 -16 32 55 -13 79 -46 23 -22 40 24 18 42 -20 52 -15 43 19 -4
19 -15 26 -48 32 -25 5 -36 10 -25 12 17 4 17 7 3 28 -9 13 -12 26 -7 29 5 3
11 23 15 45 3 22 17 52 31 67 14 15 26 32 26 38 1 6 3 22 5 36 11 67 7 108
-14 138 -12 16 -22 41 -22 54 0 13 -5 29 -11 35 -18 18 -1 33 31 26 23 -4 30
-2 30 10 0 9 -4 18 -9 21 -10 7 -3 45 12 64 7 9 7 16 -1 24 -7 7 -12 20 -12
29 0 16 3 16 27 4 22 -12 31 -12 52 -1 14 8 40 17 58 20 48 11 28 41 -33 52
-22 4 -64 37 -64 50 0 7 11 21 24 29 l24 16 -34 60 c-18 33 -33 63 -32 67 1 4
-3 16 -9 27 -13 24 -13 97 0 106 12 9 2 39 -13 39 -6 0 -8 -6 -4 -12 5 -9 4
-10 -4 -3 -13 12 -4 97 9 89 5 -3 24 -2 43 2 25 4 36 12 38 27 2 11 9 23 17
25 10 3 12 -1 8 -17 -3 -11 -1 -21 4 -21 17 0 49 40 49 61 0 12 14 34 31 50
30 28 31 30 15 54 -9 13 -16 36 -16 50 0 14 -7 28 -15 31 -8 4 -15 12 -15 19
0 7 -17 22 -37 32 -25 12 -44 31 -56 55 -9 21 -24 38 -32 38 -8 0 -15 8 -15
17 0 9 -9 27 -21 39 -26 28 -30 53 -12 81 13 20 13 24 -1 38 -9 9 -16 20 -16
24 0 14 24 31 45 31 23 0 54 45 52 75 -2 16 6 21 40 25 42 5 42 6 30 30 -7 14
-26 29 -45 35 -35 10 -41 20 -17 29 17 6 21 46 5 46 -5 0 -10 9 -10 19 0 11
-10 37 -22 60 -20 38 -20 42 -5 59 24 27 12 92 -22 119 -9 7 -29 13 -45 13
-65 0 -122 43 -117 87 1 7 -4 13 -11 13 -8 1 -5 6 6 15 11 8 17 16 13 16 -4 1
-11 3 -17 4 -5 1 -14 3 -20 4 -5 0 -10 8 -10 16 0 8 -5 15 -12 15 -6 0 -8 3
-5 6 4 4 13 2 20 -5 8 -6 22 -9 31 -5 11 4 16 1 16 -11 0 -9 5 -13 10 -10 6 3
10 14 10 24 0 10 6 24 14 30 20 17 26 49 11 64 -10 11 -10 18 1 38 18 33 17
39 -5 39 -11 0 -23 5 -26 11 -4 5 -18 14 -31 19 -13 5 -24 16 -24 24 0 9 -6
13 -12 11 -7 -3 -26 6 -43 19 l-30 24 28 13 c15 7 27 16 27 21 0 4 7 8 16 8 8
0 31 12 50 26 27 21 32 30 23 40 -9 11 -7 14 9 14 23 0 32 17 22 45 -4 11 -3
33 1 50 8 26 5 32 -22 53 -19 15 -28 30 -24 39 3 9 -1 21 -10 27 -25 18 -35
70 -19 101 8 15 11 31 8 36 -3 6 2 21 11 36 14 20 15 30 6 50 -6 13 -11 32
-11 42 0 11 -9 21 -21 24 -12 3 -18 10 -14 16 3 6 1 11 -4 11 -24 0 -9 21 18
26 34 7 32 34 -3 34 -29 1 -60 20 -86 53 -12 15 -28 27 -36 27 -19 0 -18 16 4
32 10 7 28 34 40 60 16 34 26 46 37 41 10 -3 15 0 13 8 -2 10 5 13 25 11 19
-2 27 1 27 11 0 9 5 17 12 19 10 4 9 15 -2 49 -8 24 -17 46 -21 49 -4 3 -9 20
-12 38 -3 18 -10 38 -15 45 -10 11 -16 46 -13 75 1 7 12 18 26 24 14 6 25 20
25 30 0 10 6 21 14 24 16 6 38 54 40 87 1 16 7 21 20 19 11 -2 16 2 14 9 -2 7
-15 14 -28 16 -32 5 -62 37 -48 51 11 11 -7 72 -21 72 -4 0 -15 6 -25 13 -16
12 -16 14 4 40 19 23 19 28 6 33 -26 10 -18 27 11 21 26 -5 93 28 93 46 0 5 9
21 19 35 18 26 21 33 21 51 0 5 14 14 30 21 17 7 33 16 35 21 6 8 -50 39 -72
39 -9 0 -12 7 -7 25 5 22 3 25 -17 23 -19 -3 -25 2 -27 25 -3 21 -9 27 -27 27
-18 0 -22 4 -18 20 4 14 0 20 -11 20 -23 0 -20 27 4 40 11 6 23 22 26 35 3 13
15 27 25 30 20 7 24 17 11 29 -7 8 -8 13 -11 41 0 9 -9 19 -18 22 -22 8 -43
28 -43 41 0 5 -6 15 -14 22 -8 6 -13 17 -10 24 3 8 -1 20 -8 27 -13 14 -17 73
-6 84 3 4 42 16 85 27 43 11 81 25 85 31 8 12 12 14 53 16 14 0 25 7 25 14 0
18 37 47 59 47 20 0 36 39 21 54 -5 5 -4 18 2 32 6 13 9 25 7 27 -2 1 -17 9
-34 18 -44 23 -39 62 14 118 36 38 45 43 61 34 25 -17 57 6 45 33 -4 10 -7 25
-6 32 1 7 -5 25 -13 40 -8 15 -17 39 -20 54 -3 14 -19 40 -36 56 -31 31 -38
56 -20 67 6 3 10 20 10 37 0 21 -6 31 -20 35 -11 3 -20 13 -20 23 0 15 12 19
73 24 39 3 94 8 120 10 38 3 47 1 43 -10 -3 -7 -1 -16 5 -19 13 -9 42 22 33
36 -4 7 -3 9 3 6 6 -4 17 0 24 9 10 13 10 19 0 36 -12 19 -11 20 13 16 36 -7
57 27 29 48 -10 7 -26 14 -36 14 -30 0 -32 29 -3 51 18 14 26 29 24 48 -3 38
8 50 52 57 45 7 57 19 66 61 4 23 0 36 -20 60 -14 17 -26 37 -26 45 0 8 -14
35 -30 61 -27 44 -29 50 -16 70 8 12 18 38 21 57 15 77 23 99 51 128 21 23 25
24 46 11 13 -8 35 -13 49 -11 22 3 26 7 22 25 -3 12 -12 29 -20 39 -8 9 -10
19 -5 22 6 3 3 25 -6 53 -12 35 -13 48 -4 51 7 2 12 10 12 17 0 16 40 46 51
39 4 -2 10 0 14 6 8 14 48 13 63 -2 8 -8 15 -8 27 2 13 11 18 10 33 -4 28 -24
43 -20 36 9 -8 30 -1 31 42 4 19 -11 38 -18 43 -14 6 3 49 -1 96 -10 79 -15
86 -15 102 0 12 13 26 15 59 10 33 -5 44 -2 51 9 5 10 28 18 56 21 27 2 53 7
58 11 5 3 15 1 22 -4 7 -5 43 -12 81 -15 42 -4 76 -13 87 -23 12 -11 30 -15
53 -12 22 2 37 -1 40 -8 3 -7 19 -15 37 -19 27 -6 36 -4 47 14 8 11 24 21 36
21 13 0 49 28 96 75 60 61 78 73 97 69 34 -9 124 26 133 52 11 28 35 37 51 18
9 -11 26 -15 56 -12 26 2 44 -1 47 -8 3 -7 19 -15 37 -19 27 -6 36 -4 47 14 8
11 24 21 36 21 13 0 52 32 105 85 81 82 101 97 101 75 0 -16 26 -12 41 6 10
12 10 20 1 35 -7 11 -10 23 -8 28 3 4 -1 17 -9 27 -8 10 -15 33 -15 49 0 19
-12 45 -30 67 -30 36 -30 39 -19 79 12 39 11 43 -10 60 -27 22 -21 35 22 45
17 3 41 13 52 20 11 8 27 14 36 14 9 0 27 11 40 25 13 13 32 25 41 25 12 0 15
5 11 15 -3 9 2 22 13 30 18 13 17 14 -9 26 -18 8 -27 20 -27 35 0 13 -4 26
-10 29 -17 10 -11 25 10 25 18 0 19 3 8 20 -10 16 -9 26 10 57 19 33 26 38 55
36 25 -2 41 4 57 22 22 24 22 26 6 44 -12 13 -14 21 -6 26 7 4 3 17 -12 38
-19 27 -57 117 -58 139 0 11 63 28 92 24 15 -2 34 -9 43 -16 9 -7 27 -10 43
-7 16 3 39 0 53 -8 13 -8 31 -17 39 -21 8 -4 29 -17 45 -29 17 -12 60 -30 97
-40 55 -14 75 -16 110 -7 24 6 50 11 58 11 8 0 24 0 35 1 11 1 30 -1 42 -5 18
-6 25 -2 33 19 6 17 6 35 0 52 -6 14 -10 27 -10 28 0 13 108 -21 132 -41 18
-16 75 -33 128 -38 19 -2 57 -13 83 -24 31 -13 63 -20 89 -17 22 2 58 -1 80
-6 31 -6 45 -5 57 5 9 7 33 23 54 35 36 21 43 21 110 11 40 -7 77 -15 82 -19
6 -4 52 -7 104 -8 52 -1 99 -6 105 -12 5 -5 20 -10 32 -10 12 0 26 -6 32 -13
6 -7 31 -14 56 -16 37 -1 50 3 79 29 19 16 42 30 50 30 9 0 19 5 22 10 3 6 22
10 41 10 20 0 34 5 34 13 0 9 24 12 86 12 80 0 88 -2 97 -22 7 -17 18 -23 41
-22 36 1 62 -4 72 -14 4 -4 22 -7 40 -7 24 0 34 5 39 20 4 12 15 20 30 20 14
0 45 21 81 55 52 48 64 55 96 53 20 -1 42 3 50 9 7 6 37 18 66 27 48 16 56 24
53 51 -2 17 105 24 167 10 20 -5 37 -3 46 4 11 9 17 7 29 -9 11 -16 28 -22 65
-25 52 -4 112 -37 112 -61 0 -16 30 -27 31 -11 0 8 2 7 6 -2 7 -18 37 -47 60
-59 19 -10 93 -4 93 7 0 12 46 7 63 -8 14 -11 18 -11 23 4 5 11 9 13 14 5 9
-15 60 -2 60 16 0 8 -4 14 -9 14 -14 0 -33 62 -22 73 5 5 23 2 45 -8 20 -10
39 -15 42 -12 3 3 18 1 34 -5 19 -6 35 -6 49 1 14 8 23 8 33 -2 7 -7 22 -12
33 -12 11 0 28 -3 37 -7 9 -5 20 -4 23 2 4 6 18 1 35 -12 20 -14 47 -22 87
-24 40 -2 75 -12 115 -33 53 -28 61 -30 105 -21 63 14 64 14 90 28 18 10 29
10 55 -1 24 -10 49 -12 88 -6 69 9 163 2 214 -17 57 -22 193 -17 225 8 17 13
33 17 57 12 27 -5 37 -1 57 20 20 21 34 26 71 26 26 0 71 8 100 19 49 17 55
17 69 3 13 -13 20 -13 47 -2 46 19 102 15 122 -10 11 -13 30 -21 57 -22 22 -1
42 -7 45 -13 2 -6 20 -12 39 -13 28 -1 37 3 42 19 5 15 12 18 27 13 16 -5 29
3 57 34 42 46 97 82 126 82 12 0 45 16 75 35 30 19 60 35 66 35 6 0 19 9 30
21 14 16 26 20 53 15 19 -3 48 1 69 9 47 20 68 19 92 -5 12 -12 33 -20 54 -20
18 0 38 -6 44 -13 19 -23 75 -20 93 5 16 21 19 21 36 7 25 -22 51 -31 103 -34
25 -2 59 -6 75 -10 17 -3 44 -8 62 -10 17 -2 42 -9 55 -16 12 -7 34 -14 47
-15 13 -2 31 -6 40 -10 30 -13 82 -15 120 -4 51 13 96 -2 109 -38 8 -23 40
-70 82 -119 6 -7 22 -13 36 -13 21 0 23 3 14 19 -15 29 -13 31 30 31 31 0 38
-3 34 -15 -4 -9 0 -15 10 -15 9 0 16 -4 16 -10 0 -5 14 -10 30 -10 19 0 30 5
30 14 0 32 27 38 74 18 33 -15 66 -20 128 -20 46 1 90 5 99 9 10 5 30 1 55
-12 33 -17 60 -21 170 -23 72 -2 136 -6 142 -10 7 -4 17 -4 22 -1 12 8 128 18
180 16 19 -1 56 4 82 11 44 11 49 10 72 -11 13 -12 39 -23 57 -25 19 -2 47 -8
62 -14 40 -17 54 -15 70 8 12 17 19 19 40 11 21 -8 25 -7 20 4 -3 8 0 15 6 15
6 0 26 15 45 34 22 22 48 37 73 41 21 4 63 23 93 43 80 53 159 91 162 80 2 -5
36 -10 77 -9 51 0 80 -4 97 -16 16 -10 36 -14 58 -10 24 4 36 1 40 -8 2 -7 19
-16 37 -20 27 -6 36 -4 47 14 8 11 23 21 34 21 11 0 55 35 101 81 66 65 85 79
98 71 12 -8 23 -6 38 4 18 13 21 22 15 52 -4 20 -14 47 -22 60 -20 31 -3 69
35 78 15 4 36 14 46 22 13 12 20 13 29 4 17 -17 63 -15 78 3 7 8 28 15 46 15
25 0 36 -6 46 -24 7 -14 18 -25 23 -26 6 -1 30 -10 54 -21 65 -28 94 -25 108
11 12 33 24 37 45 16 8 -7 25 -17 37 -21 20 -6 23 -5 17 11 -5 13 3 27 30 51
21 18 42 34 48 34 6 1 45 3 86 5 41 1 94 5 118 9 25 4 70 8 101 10 31 2 86 6
123 10 64 6 70 5 113 -24 63 -43 89 -47 114 -22 27 27 39 26 51 -4 5 -14 12
-25 14 -25 2 0 18 14 34 30 36 36 86 40 123 11 56 -43 115 -59 103 -27 -3 8 3
17 13 20 10 4 19 2 21 -3 2 -6 9 -8 15 -4 7 5 28 9 47 9 49 2 66 7 88 27 13
12 33 17 61 16 22 -2 44 0 47 4 11 11 33 8 64 -8z m-13690 -2155 c-17 -11 -50
-13 -50 -3 0 3 8 15 17 25 15 17 18 17 32 3 14 -14 14 -17 1 -25z m25993
-4920 c3 -12 0 -20 -8 -20 -8 0 -11 8 -8 20 3 11 7 20 8 20 1 0 5 -9 8 -20z
m-653 -1760 c0 -16 -18 -30 -41 -30 -5 0 -9 9 -9 21 0 11 4 18 9 15 5 -3 12 1
15 10 7 19 26 9 26 -16z m-3157 -514 c20 -44 11 -53 -19 -18 -26 29 -28 35
-17 45 12 13 19 7 36 -27z m-2813 -977 c0 -4 -7 -6 -15 -3 -8 4 -15 10 -15 15
0 4 7 6 15 3 8 -4 15 -10 15 -15z m-7562 -46 c-1 -5 3 -18 11 -31 20 -37 8
-46 -22 -16 -21 21 -25 30 -16 40 12 15 30 19 27 7z m197 -142 c7 -12 -24 -43
-36 -36 -15 10 -10 33 9 38 9 3 18 5 19 6 1 0 4 -3 8 -8z m125 -1 c0 -5 -7
-10 -16 -10 -8 0 -12 5 -9 10 3 6 10 10 16 10 5 0 9 -4 9 -10z m337 -106 c6
-16 -15 -37 -29 -28 -4 3 -8 14 -8 25 0 23 28 26 37 3z m1941 -268 c1 -21 -16
-38 -30 -30 -4 3 -8 16 -8 29 0 30 35 31 38 1z"/>
<path d="M3710 10500 c0 -5 7 -10 16 -10 8 0 12 5 9 10 -3 6 -10 10 -16 10 -5
0 -9 -4 -9 -10z"/>
<path d="M3755 10490 c3 -5 8 -10 11 -10 2 0 4 5 4 10 0 6 -5 10 -11 10 -5 0
-7 -4 -4 -10z"/>
<path d="M3775 10440 c4 -6 11 -8 16 -5 14 9 11 15 -7 15 -8 0 -12 -5 -9 -10z"/>
<path d="M1100 4499 c0 -5 5 -7 10 -4 6 3 10 8 10 11 0 2 -4 4 -10 4 -5 0 -10
-5 -10 -11z"/>
<path d="M23656 2531 c-3 -5 3 -20 14 -32 11 -13 19 -19 20 -12 0 6 -5 15 -10
18 -6 4 -8 10 -5 15 3 5 1 11 -4 14 -5 4 -12 2 -15 -3z"/>
<path d="M6397 1573 c-7 -12 11 -53 23 -53 13 0 13 2 -4 35 -8 14 -16 23 -19
18z"/>
<path d="M20855 1530 c15 -28 43 -45 31 -17 -3 6 -9 20 -12 30 -4 9 -13 17
-20 17 -12 0 -12 -5 1 -30z"/>
<path d="M10060 1532 c0 -5 7 -17 16 -28 14 -17 15 -17 10 -1 -3 10 -6 23 -6
28 0 5 -4 9 -10 9 -5 0 -10 -4 -10 -8z"/>
<path d="M1810 1470 c0 -5 5 -10 10 -10 6 0 10 5 10 10 0 6 -4 10 -10 10 -5 0
-10 -4 -10 -10z"/>
<path d="M13293 1455 c13 -27 33 -35 23 -9 -3 9 -6 20 -6 25 0 5 -6 9 -14 9
-11 0 -12 -5 -3 -25z"/>
<path d="M8860 1352 c0 -5 7 -17 16 -28 14 -17 15 -17 10 -1 -3 10 -6 23 -6
28 0 5 -4 9 -10 9 -5 0 -10 -4 -10 -8z"/>
<path d="M10857 1333 c-7 -12 11 -53 23 -53 13 0 13 2 -4 35 -8 14 -16 23 -19
18z"/>
<path d="M3397 1273 c-7 -12 11 -53 23 -53 13 0 13 2 -4 35 -8 14 -16 23 -19
18z"/>
<path d="M14668 1124 c-11 -19 11 -54 34 -54 21 1 21 2 5 11 -10 6 -22 20 -26
32 -4 11 -10 16 -13 11z"/>
<path d="M18560 1040 c0 -5 4 -10 9 -10 5 0 14 -14 20 -32 8 -23 14 -29 22
-21 8 8 6 20 -10 42 -22 31 -41 40 -41 21z"/>
<path d="M19465 770 c3 -5 13 -10 21 -10 8 0 14 5 14 10 0 6 -9 10 -21 10 -11
0 -17 -4 -14 -10z"/>
<path d="M12996 11522 c-3 -6 3 -12 15 -15 12 -3 19 -1 16 6 -5 15 -24 20 -31
9z"/>
<path d="M12360 11290 c0 -5 5 -10 10 -10 6 0 10 5 10 10 0 6 -4 10 -10 10 -5
0 -10 -4 -10 -10z"/>
<path d="M2280 11215 c-7 -14 -19 -25 -26 -25 -22 0 -24 -29 -1 -45 12 -8 27
-15 33 -15 6 0 18 -7 25 -17 11 -13 11 -17 2 -20 -23 -8 -14 -32 15 -39 60
-13 62 -15 62 -47 0 -46 13 -61 44 -53 14 3 26 13 26 21 0 10 10 15 31 15 26
0 29 -2 20 -14 -10 -12 -5 -16 34 -22 30 -4 45 -11 42 -19 -3 -6 -2 -17 2 -24
6 -9 11 -8 21 4 11 14 11 18 1 25 -8 4 -11 12 -8 16 3 5 -1 17 -8 27 -11 15
-17 16 -34 8 -26 -14 -31 -14 -31 3 0 14 30 28 64 30 28 2 32 26 4 26 -18 0
-20 2 -8 10 12 8 10 10 -10 10 -28 1 -65 30 -94 74 -14 23 -16 33 -7 52 6 13
6 26 1 29 -13 8 -102 4 -121 -6 -10 -5 -23 -3 -35 6 -26 19 -29 19 -44 -10z"/>
<path d="M3118 10980 c-15 -4 -35 -16 -44 -25 -16 -15 -15 -18 15 -46 37 -33
43 -36 34 -13 -4 11 -1 15 12 12 20 -3 41 42 31 67 -6 17 -9 17 -48 5z"/>
<path d="M2635 10940 c3 -5 8 -10 11 -10 2 0 4 5 4 10 0 6 -5 10 -11 10 -5 0
-7 -4 -4 -10z"/>
<path d="M2972 10669 c2 -7 10 -15 17 -17 8 -3 12 1 9 9 -2 7 -10 15 -17 17
-8 3 -12 -1 -9 -9z"/>
<path d="M450 7720 c0 -5 5 -10 10 -10 6 0 10 5 10 10 0 6 -4 10 -10 10 -5 0
-10 -4 -10 -10z"/>
<path d="M28068 6238 c-15 -11 -23 -42 -19 -73 1 -6 10 -16 22 -23 18 -11 24
-11 40 4 32 28 51 75 38 90 -14 17 -60 18 -81 2z"/>
<path d="M28112 4335 c-7 -8 -9 -15 -3 -15 5 0 7 -8 4 -18 -2 -10 5 -29 16
-43 17 -21 21 -22 35 -9 12 12 13 22 3 58 -12 44 -31 54 -55 27z"/>
<path d="M27905 4020 c-3 -5 -1 -10 4 -10 6 0 11 5 11 10 0 6 -2 10 -4 10 -3
0 -8 -4 -11 -10z"/>
<path d="M27730 2790 c0 -5 5 -10 11 -10 5 0 7 5 4 10 -3 6 -8 10 -11 10 -2 0
-4 -4 -4 -10z"/>
<path d="M27807 2570 c-9 -11 -28 -20 -42 -20 -20 0 -25 -5 -25 -26 0 -14 -4
-23 -10 -19 -5 3 -10 1 -10 -5 0 -8 9 -10 24 -6 17 4 29 1 38 -11 15 -21 54
-42 86 -46 13 -2 27 -10 32 -17 7 -11 14 -12 35 -2 32 15 39 32 31 77 -6 29
-12 37 -37 42 -16 3 -29 9 -29 13 0 5 -15 14 -32 21 -18 7 -35 14 -38 16 -3 2
-13 -6 -23 -17z"/>
<path d="M26995 2140 c3 -5 8 -10 11 -10 2 0 4 5 4 10 0 6 -5 10 -11 10 -5 0
-7 -4 -4 -10z"/>
<path d="M27582 1888 c-8 -8 -8 -15 -1 -24 7 -9 7 -19 -1 -34 -9 -16 -8 -25 1
-37 12 -13 14 -13 25 2 7 9 17 14 22 11 5 -3 15 1 21 8 9 10 9 16 1 21 -6 4
-10 14 -9 23 1 10 1 23 0 30 -1 15 -43 16 -59 0z"/>
<path d="M26730 1678 c0 -4 -1 -11 -2 -15 -2 -5 14 -9 35 -10 40 -2 44 1 23
22 -14 15 -56 17 -56 3z"/>
<path d="M1106 1441 c-3 -5 1 -11 9 -15 8 -3 15 -1 15 4 0 13 -18 22 -24 11z"/>
<path d="M1055 1421 c-3 -5 -1 -12 5 -16 12 -7 30 2 30 16 0 12 -27 12 -35 0z"/>
<path d="M20730 831 c0 -22 16 -36 24 -22 8 12 -3 41 -15 41 -5 0 -9 -9 -9
-19z"/>
<path d="M20565 830 c3 -5 8 -10 11 -10 2 0 4 5 4 10 0 6 -5 10 -11 10 -5 0
-7 -4 -4 -10z"/>
<path d="M12400 709 c-21 -16 -23 -20 -10 -29 22 -14 33 -12 27 4 -3 8 0 16 8
18 8 2 11 8 7 15 -5 8 -14 6 -32 -8z"/>
<path d="M12483 714 c-8 -22 17 -64 39 -64 18 0 19 15 2 68 -5 17 -33 15 -41
-4z"/>
<path d="M20394 710 c-13 -5 -24 -21 -27 -39 -4 -17 -13 -31 -21 -31 -20 0
-28 -28 -13 -50 15 -25 24 -25 32 1 4 12 12 18 21 15 10 -4 19 7 30 33 9 22
22 42 30 45 8 3 11 12 8 21 -5 11 -10 13 -19 5 -8 -6 -15 -7 -17 -2 -1 5 -12
6 -24 2z"/>
<path d="M11990 680 c0 -5 5 -10 10 -10 6 0 10 5 10 10 0 6 -4 10 -10 10 -5 0
-10 -4 -10 -10z"/>
<path d="M5375 360 c-3 -5 -12 -7 -20 -3 -18 6 -19 -1 -5 -28 11 -20 45 -26
55 -9 8 13 -3 50 -15 50 -5 0 -11 -4 -15 -10z"/>
<path d="M7820 250 c0 -6 7 -10 15 -10 8 0 15 2 15 4 0 2 -7 6 -15 10 -8 3
-15 1 -15 -4z"/>
</g>
</svg>
